<?xml version="1.0" encoding="UTF-8" standalone="no"?>
<!-- Created with Inkscape (http://www.inkscape.org/) -->

<svg
   xmlns:dc="http://purl.org/dc/elements/1.1/"
   xmlns:cc="http://creativecommons.org/ns#"
   xmlns:rdf="http://www.w3.org/1999/02/22-rdf-syntax-ns#"
   xmlns:svg="http://www.w3.org/2000/svg"
   xmlns="http://www.w3.org/2000/svg"
   xmlns:sodipodi="http://sodipodi.sourceforge.net/DTD/sodipodi-0.dtd"
   xmlns:inkscape="http://www.inkscape.org/namespaces/inkscape"
   width="600"
   height="600"
   viewBox="0 0 600.00001 600.00001"
   id="svg3425"
   version="1.1"
   inkscape:version="0.92.3 (2405546, 2018-03-11)"
   sodipodi:docname="cfn-logo.svg">
  <defs
     id="defs3427">
    <filter
       style="color-interpolation-filters:sRGB"
       inkscape:label="Drop Shadow"
       id="filter4691">
      <feFlood
         flood-opacity="0.498039"
         flood-color="rgb(19,64,119)"
         result="flood"
         id="feFlood4693" />
      <feComposite
         in="flood"
         in2="SourceGraphic"
         operator="in"
         result="composite1"
         id="feComposite4695" />
      <feGaussianBlur
         in="composite1"
         stdDeviation="2"
         result="blur"
         id="feGaussianBlur4697" />
      <feOffset
         dx="1"
         dy="1"
         result="offset"
         id="feOffset4699" />
      <feComposite
         in="offset"
         in2="offset"
         operator="atop"
         result="composite2"
         id="feComposite4701" />
    </filter>
    <filter
       style="color-interpolation-filters:sRGB"
       inkscape:label="Drop Shadow"
       id="filter4685">
      <feFlood
         flood-opacity="0.498039"
         flood-color="rgb(19,64,119)"
         result="flood"
         id="feFlood4687" />
      <feComposite
         in="flood"
         in2="SourceGraphic"
         operator="in"
         result="composite1"
         id="feComposite4689" />
      <feGaussianBlur
         in="composite1"
         stdDeviation="2"
         result="blur"
         id="feGaussianBlur4691" />
      <feOffset
         dx="1"
         dy="1"
         result="offset"
         id="feOffset4693" />
      <feComposite
         in="offset"
         in2="offset"
         operator="atop"
         result="fbSourceGraphic"
         id="feComposite4696" />
      <feColorMatrix
         result="fbSourceGraphicAlpha"
         in="fbSourceGraphic"
         values="0 0 0 -1 0 0 0 0 -1 0 0 0 0 -1 0 0 0 0 1 0"
         id="feColorMatrix4698" />
      <feFlood
         id="feFlood4700"
         flood-opacity="0.498039"
         flood-color="rgb(19,64,119)"
         result="flood"
         in="fbSourceGraphic" />
      <feComposite
         id="feComposite4702"
         in2="fbSourceGraphic"
         in="flood"
         operator="in"
         result="composite1" />
      <feGaussianBlur
         id="feGaussianBlur4704"
         in="composite1"
         stdDeviation="2"
         result="blur" />
      <feOffset
         id="feOffset4706"
         dx="1"
         dy="1"
         result="offset" />
      <feComposite
         id="feComposite4708"
         in2="offset"
         in="offset"
         operator="atop"
         result="composite2" />
    </filter>
    <clipPath
       clipPathUnits="userSpaceOnUse"
       id="clipPath5190">
      <rect
         style="fill:#134077;fill-opacity:1;stroke-width:0;stroke-miterlimit:4;stroke-dasharray:none"
         id="rect5192"
         width="722.34076"
         height="722.34076"
         x="8.6331244"
         y="138.36551" />
    </clipPath>
    <clipPath
       clipPathUnits="userSpaceOnUse"
       id="clipPath5196">
      <rect
         style="opacity:0.58999999;fill:#134077;fill-opacity:1;stroke-width:0;stroke-miterlimit:4;stroke-dasharray:none"
         id="rect5198"
         width="710.49915"
         height="710.49915"
         x="14.553941"
         y="144.28632" />
    </clipPath>
    <filter
       style="color-interpolation-filters:sRGB;"
       inkscape:label="Drop Shadow"
       id="filter508">
      <feFlood
         flood-opacity="0.498039"
         flood-color="rgb(4,25,35)"
         result="flood"
         id="feFlood498" />
      <feComposite
         in="flood"
         in2="SourceGraphic"
         operator="in"
         result="composite1"
         id="feComposite500" />
      <feGaussianBlur
         in="composite1"
         stdDeviation="2"
         result="blur"
         id="feGaussianBlur502" />
      <feOffset
         dx="1"
         dy="1"
         result="offset"
         id="feOffset504" />
      <feComposite
         in="offset"
         in2="offset"
         operator="atop"
         result="composite2"
         id="feComposite506" />
    </filter>
    <filter
       style="color-interpolation-filters:sRGB;"
       inkscape:label="Drop Shadow"
       id="filter676">
      <feFlood
         flood-opacity="0.498039"
         flood-color="rgb(4,25,35)"
         result="flood"
         id="feFlood666" />
      <feComposite
         in="flood"
         in2="SourceGraphic"
         operator="in"
         result="composite1"
         id="feComposite668" />
      <feGaussianBlur
         in="composite1"
         stdDeviation="5"
         result="blur"
         id="feGaussianBlur670" />
      <feOffset
         dx="1"
         dy="1"
         result="offset"
         id="feOffset672" />
      <feComposite
         in="offset"
         in2="offset"
         operator="atop"
         result="composite2"
         id="feComposite674" />
    </filter>
    <filter
       style="color-interpolation-filters:sRGB;"
       inkscape:label="Drop Shadow"
       id="filter844">
      <feFlood
         flood-opacity="0.498039"
         flood-color="rgb(4,25,35)"
         result="flood"
         id="feFlood834" />
      <feComposite
         in="flood"
         in2="SourceGraphic"
         operator="in"
         result="composite1"
         id="feComposite836" />
      <feGaussianBlur
         in="composite1"
         stdDeviation="10"
         result="blur"
         id="feGaussianBlur838" />
      <feOffset
         dx="2"
         dy="2"
         result="offset"
         id="feOffset840" />
      <feComposite
         in="offset"
         in2="offset"
         operator="atop"
         result="composite2"
         id="feComposite842" />
    </filter>
  </defs>
  <sodipodi:namedview
     id="base"
     pagecolor="#ffffff"
     bordercolor="#666666"
     borderopacity="1.0"
     inkscape:pageopacity="0.0"
     inkscape:pageshadow="2"
     inkscape:zoom="0.7"
     inkscape:cx="261.17885"
     inkscape:cy="223.68504"
     inkscape:document-units="px"
     inkscape:current-layer="layer1"
     showgrid="false"
     inkscape:window-width="1299"
     inkscape:window-height="713"
     inkscape:window-x="67"
     inkscape:window-y="27"
     inkscape:window-maximized="1"
     units="px" />
  <metadata
     id="metadata3430">
    <rdf:RDF>
      <cc:Work
         rdf:about="">
        <dc:format>image/svg+xml</dc:format>
        <dc:type
           rdf:resource="http://purl.org/dc/dcmitype/StillImage" />
        <dc:title />
      </cc:Work>
    </rdf:RDF>
  </metadata>
  <g
     inkscape:label="Layer 1"
     inkscape:groupmode="layer"
     id="layer1"
     transform="translate(0,-452.36216)">
    <g
       transform="matrix(0.84447676,0,0,0.84447676,-25.802096,330.5157)"
       id="g832"
       style="filter:url(#filter844)">
      <g
         id="g688"
         transform="matrix(1.3374509,0,0,1.3374509,-10.774463,-43.042565)">
        <g
           transform="matrix(1.7896233,0,0,1.7080107,-231.57056,-298.68449)"
           id="g682">
          <path
             sodipodi:type="star"
             style="fill:#35469d;fill-opacity:1;stroke-width:5.80000019;stroke-miterlimit:4;stroke-dasharray:none"
             id="path678"
             sodipodi:sides="6"
             sodipodi:cx="225.18657"
             sodipodi:cy="330.9888"
             sodipodi:r1="74.001694"
             sodipodi:r2="64.087341"
             sodipodi:arg1="0"
             sodipodi:arg2="0.52359878"
             inkscape:flatsided="true"
             inkscape:rounded="0"
             inkscape:randomized="0"
             d="m 299.18826,330.9888 -37.00084,64.08735 h -74.0017 l -37.00084,-64.08735 37.00084,-64.08735 h 74.0017 z" />
          <path
             sodipodi:type="star"
             style="fill:#ffffff;fill-opacity:1;stroke-width:5.80000019;stroke-miterlimit:4;stroke-dasharray:none"
             id="path680"
             sodipodi:sides="6"
             sodipodi:cx="224.81895"
             sodipodi:cy="330.70761"
             sodipodi:r1="65.09594"
             sodipodi:r2="56.374737"
             sodipodi:arg1="0"
             sodipodi:arg2="0.52359878"
             inkscape:flatsided="true"
             inkscape:rounded="0"
             inkscape:randomized="0"
             d="m 289.91489,330.70761 -32.54797,56.37474 h -65.09594 l -32.54797,-56.37474 32.54797,-56.37474 h 65.09594 z" />
        </g>
        <g
           id="g686"
           style="font-style:normal;font-weight:normal;font-size:40px;line-height:125%;font-family:sans-serif;letter-spacing:0px;word-spacing:0px;fill:#f01c23;fill-opacity:1;stroke:none;stroke-width:1px;stroke-linecap:butt;stroke-linejoin:miter;stroke-opacity:1"
           transform="matrix(1.3688029,-0.75423945,0.79027872,1.306381,-888.57118,215.55896)">
          <path
             id="path684"
             style="font-style:normal;font-variant:normal;font-weight:bold;font-stretch:normal;font-size:60px;font-family:Cardiff;-inkscape-font-specification:'Cardiff Bold';fill:#f01c23;fill-opacity:1"
             d="m 542.41219,357.03006 -0.6,4.92 q 0,3.42 1.14,6.66 1.02,3.18 3,6 1.92,2.7 4.32,4.5 2.46,1.8 5.46,2.64 3.72,1.08 7.5,1.08 4.8,0 9.06,-2.1 4.44,-2.16 7.98,-6.6 l -1.8,-1.5 q -0.54,0.84 -1.56,1.86 -0.96,0.9 -2.16,1.8 -1.14,0.9 -2.4,1.56 -1.2,0.66 -2.58,1.2 -1.2,0.48 -2.7,0.78 -1.5,0.3 -2.64,0.3 -2.88,0 -5.28,-1.38 -2.28,-1.32 -3.96,-3.9 -1.26,-1.86 -1.92,-5.82 -0.36,-2.28 -0.54,-4.32 -0.24,-1.86 -0.24,-4.08 l 0.12,-2.88 q 0,-4.02 0.96,-6.96 1.02,-3 2.52,-4.86 2.94,-3.66 7.5,-3.66 2.58,0 5.34,1.5 2.82,1.56 5.04,4.2 2.34,2.88 3.72,6.48 h 1.5 v -14.04 h -1.62 q -0.84,2.28 -2.04,2.64 l -0.66,0.12 -2.46,-0.72 q -1.02,-0.36 -1.74,-0.66 -0.24,-0.12 -0.3,-0.12 -0.12,-0.06 -0.42,-0.12 -0.36,-0.06 -0.6,-0.12 -3.6,-1.14 -6.9,-1.14 -4.68,0 -9,2.16 -2.16,1.2 -3.9,2.7 -1.8,1.5 -3.24,3.36 -2.94,3.84 -3.9,8.52 z"
             inkscape:connector-curvature="0" />
        </g>
      </g>
      <g
         id="g700"
         transform="matrix(1.3374509,0,0,1.3374509,-155.0281,-62.149006)">
        <g
           transform="matrix(1.7896233,0,0,1.7080107,-137.14321,-292.26278)"
           id="g694">
          <path
             sodipodi:type="star"
             style="fill:#fdbe0d;fill-opacity:1;stroke-width:5.80000019;stroke-miterlimit:4;stroke-dasharray:none"
             id="path690"
             sodipodi:sides="6"
             sodipodi:cx="343.24881"
             sodipodi:cy="399.159"
             sodipodi:r1="74.001694"
             sodipodi:r2="64.087341"
             sodipodi:arg1="0"
             sodipodi:arg2="0.52359878"
             inkscape:flatsided="true"
             inkscape:rounded="0"
             inkscape:randomized="0"
             d="m 417.2505,399.159 -37.00084,64.08734 h -74.0017 L 269.24712,399.159 306.24796,335.07165 h 74.0017 z" />
          <path
             sodipodi:type="star"
             style="fill:#0a8141;fill-opacity:1;stroke-width:5.80000019;stroke-miterlimit:4;stroke-dasharray:none"
             id="path692"
             sodipodi:sides="6"
             sodipodi:cx="342.8812"
             sodipodi:cy="398.87781"
             sodipodi:r1="65.09594"
             sodipodi:r2="56.374737"
             sodipodi:arg1="0"
             sodipodi:arg2="0.52359878"
             inkscape:flatsided="true"
             inkscape:rounded="0"
             inkscape:randomized="0"
             d="m 407.97713,398.87781 -32.54797,56.37474 h -65.09593 l -32.54797,-56.37474 32.54797,-56.37474 h 65.09593 z" />
        </g>
        <g
           id="g698"
           style="font-style:normal;font-weight:normal;font-size:40px;line-height:125%;font-family:sans-serif;letter-spacing:0px;word-spacing:0px;fill:#fdfdfc;fill-opacity:1;stroke:none;stroke-width:1px;stroke-linecap:butt;stroke-linejoin:miter;stroke-opacity:1"
           transform="matrix(1.6854905,-0.92874107,0.97311841,1.6086267,-797.2603,316.18538)">
          <path
             id="path696"
             style="font-style:normal;font-variant:normal;font-weight:bold;font-stretch:normal;font-size:60px;font-family:Cardiff;-inkscape-font-specification:'Cardiff Bold';fill:#fdfdfc;fill-opacity:1"
             d="m 543.31219,376.11006 q 0,2.82 1.74,4.56 1.74,1.8 5.1,1.8 2.46,0 4.68,-1.44 2.16,-1.38 4.08,-5.28 l -1.5,-0.66 q -1.62,3.12 -3.3,3.12 -1.14,0 -1.8,-0.66 -0.66,-0.66 -0.66,-2.58 v -18.3 h 5.64 v -2.58 h -5.64 v -10.2 h -1.5 q -0.12,0.18 -0.66,0.96 -0.54,0.78 -0.66,0.96 -0.42,0.6 -1.5,1.92 -0.48,0.6 -0.78,0.96 -0.72,0.9 -0.78,0.96 -0.3,0.36 -1.68,1.74 -0.9,0.96 -1.8,1.86 -0.72,0.72 -2.1,1.92 v 1.5 h 3.12 z"
             inkscape:connector-curvature="0" />
        </g>
      </g>
      <g
         id="g712"
         transform="matrix(1.3374509,0,0,1.3374509,-164.58132,-332.50515)">
        <g
           transform="matrix(1.7896233,0,0,1.7080107,-47.074026,-217.05123)"
           id="g706">
          <path
             sodipodi:type="star"
             style="fill:#ed1d28;fill-opacity:1;stroke-width:5.80000019;stroke-miterlimit:4;stroke-dasharray:none"
             id="path702"
             sodipodi:sides="6"
             sodipodi:cx="185.95439"
             sodipodi:cy="537.4585"
             sodipodi:r1="74.001694"
             sodipodi:r2="64.087341"
             sodipodi:arg1="0"
             sodipodi:arg2="0.52359878"
             inkscape:flatsided="true"
             inkscape:rounded="0"
             inkscape:randomized="0"
             d="m 259.95609,537.4585 -37.00085,64.08734 h -74.0017 L 111.9527,537.4585 148.95354,473.37115 h 74.0017 z" />
          <path
             sodipodi:type="star"
             style="fill:#f26722;fill-opacity:1;stroke-width:5.80000019;stroke-miterlimit:4;stroke-dasharray:none"
             id="path704"
             sodipodi:sides="6"
             sodipodi:cx="185.58678"
             sodipodi:cy="537.17731"
             sodipodi:r1="65.09594"
             sodipodi:r2="56.374737"
             sodipodi:arg1="0"
             sodipodi:arg2="0.52359878"
             inkscape:flatsided="true"
             inkscape:rounded="0"
             inkscape:randomized="0"
             d="m 250.68272,537.17731 -32.54797,56.37473 h -65.09594 l -32.54797,-56.37473 32.54797,-56.37474 h 65.09594 z" />
        </g>
        <g
           id="g710"
           style="font-style:normal;font-weight:normal;font-size:40px;line-height:125%;font-family:sans-serif;letter-spacing:0px;word-spacing:0px;fill:#2e4699;fill-opacity:1;stroke:none;stroke-width:1px;stroke-linecap:butt;stroke-linejoin:miter;stroke-opacity:1"
           transform="matrix(1.8031024,-0.99354771,1.0410217,1.7208751,-1094.2726,618.942)">
          <path
             id="path708"
             style="font-style:normal;font-variant:normal;font-weight:bold;font-stretch:normal;font-size:60px;font-family:Cardiff;-inkscape-font-specification:'Cardiff Bold';fill:#2e4699;fill-opacity:1"
             d="m 543.43219,359.37006 v 17.58 q 0,1.86 -0.78,2.4 -0.72,0.54 -2.46,1.02 v 1.38 h 14.4 v -1.38 q -1.26,0 -2.1,-0.9 -0.72,-0.9 -0.72,-2.28 v -16.44 q 2.46,-3.36 5.4,-3.36 1.68,0.18 2.28,1.32 0.66,1.2 0.66,3.24 v 15.12 q 0,2.94 -2.94,3.3 v 1.38 h 14.04 v -1.38 q -1.38,0 -2.1,-1.02 -0.72,-1.02 -0.72,-2.4 v -15.72 q -0.24,-3.18 -2.1,-5.58 -1.8,-2.28 -6.18,-2.28 -2.34,0 -4.62,1.26 -2.22,1.38 -3.72,3.78 v -4.32 h -11.58 v 1.38 l 1.2,0.24 q 0.84,0.18 1.26,0.72 0.78,0.78 0.78,2.94 z"
             inkscape:connector-curvature="0" />
        </g>
      </g>
      <g
         transform="matrix(2.3935333,0,0,2.2843804,-495.61974,-629.9092)"
         style="font-style:normal;font-weight:normal;font-size:40px;line-height:125%;font-family:sans-serif;letter-spacing:0px;word-spacing:0px;fill:#ffffff;fill-opacity:1;stroke:none;stroke-width:1px;stroke-linecap:butt;stroke-linejoin:miter;stroke-opacity:1"
         id="g726">
        <path
           inkscape:connector-curvature="0"
           d="m 367.26773,564.05534 q -1.68,2.08 -2.52,4.44 -0.88,2.28 -0.88,4.8 0,1.12 0.24,2.16 0.2,1.04 0.6,2.12 1.76,4.48 5.64,6.96 3.88,2.44 8.64,2.44 4.08,0 8.92,-2.36 l -0.56,-1.4 q -1.92,0.92 -4,1.44 -1.92,0.52 -3.88,0.52 l -1.32,-0.08 q -0.96,0 -2.12,-0.36 -0.96,-0.24 -2.12,-0.8 -2.12,-1.08 -3.48,-2.68 -1.44,-1.6 -2.12,-3.52 -0.4,-1.16 -0.56,-2.08 -0.24,-1.08 -0.24,-2.2 0,-1.52 0.28,-2.8 0.36,-1.6 0.8,-2.76 1.04,-2.64 2.28,-4 3.32,-3.44 7.92,-3.44 1.04,0 2.16,0.2 1,0.16 2.08,0.6 2.08,0.8 3.76,2.24 1.64,1.48 2.68,3.48 0.96,1.96 0.96,4.12 0,1.44 -0.28,2.6 -0.32,1.36 -0.96,2.48 -0.76,1.28 -1.6,2 -1,0.76 -2.24,0.96 -0.8,-0.12 -1.08,-0.52 -0.28,-0.44 -0.48,-1.2 l 0.36,-1.96 2.36,-9.28 h -2.8 l -0.48,1.56 q -0.52,-1.32 -1.24,-1.72 -0.76,-0.4 -1.8,-0.4 -1.2,0 -2.16,0.4 -0.92,0.4 -1.92,1.24 -1.76,1.64 -2.72,3.84 -0.6,1.36 -0.84,2.4 -0.28,0.96 -0.28,2.2 0,1.6 0.68,2.76 0.68,1.2 1.36,1.64 0.48,0.28 1.72,0.44 2.56,0 5,-2.88 0.24,1.32 1.32,2.12 1,0.76 2.36,0.76 l 0.68,-0.08 0.64,-0.04 q 1.92,-0.4 3.36,-1.96 1.4,-1.52 2.12,-3.64 0.72,-2.12 0.72,-4.04 0,-2.6 -1.08,-4.8 -1.12,-2.2 -2.96,-3.8 -1.8,-1.56 -4.28,-2.48 -2.4,-0.88 -4.96,-0.88 -2.36,0 -4.52,0.64 -2.28,0.68 -4.12,1.92 -1.96,1.32 -3.04,2.68 z m 13.52,3.44 q 1.64,0 1.64,2.6 0,1.92 -0.68,4.04 -0.56,1.76 -1.64,3.12 -1.12,1.44 -2.4,1.44 l -0.48,-0.08 q -1.88,-0.44 -1.88,-3.44 0,-0.92 0.16,-1.6 0.12,-0.52 0.36,-1.4 0.8,-1.88 2.16,-3.24 0.68,-0.68 1.4,-1.08 0.68,-0.36 1.36,-0.36 z"
           style="font-style:italic;font-variant:normal;font-weight:bold;font-stretch:normal;font-family:Cardiff;-inkscape-font-specification:'Cardiff Bold Italic';fill:#ffffff"
           id="path714" />
        <path
           inkscape:connector-curvature="0"
           d="m 400.18898,558.61534 q -1.28,0 -2.2,0.92 -0.92,0.92 -0.92,2.2 0,1.28 0.92,2.2 0.92,0.92 2.2,0.92 1.28,0 2.2,-0.92 0.92,-0.92 0.92,-2.2 0,-0.92 -0.4,-1.56 -0.48,-0.76 -1.16,-1.12 -0.8,-0.44 -1.56,-0.44 z m -4.84,10.12 q 1.12,0.2 1.6,0.56 0.48,0.4 0.48,1.48 v 11.96 q 0,1.24 -0.4,1.76 -0.4,0.52 -1.68,0.84 v 0.92 h 9.6 v -0.92 q -1,-0.12 -1.44,-0.68 -0.44,-0.56 -0.44,-1.68 v -15.16 h -7.72 z"
           style="font-style:normal;font-variant:normal;font-weight:bold;font-stretch:normal;font-size:40px;font-family:Cardiff;-inkscape-font-specification:'Cardiff Bold';fill:#ffffff"
           id="path716" />
        <path
           inkscape:connector-curvature="0"
           d="m 411.28273,558.61534 q -1.28,0 -2.2,0.92 -0.92,0.92 -0.92,2.2 0,1.28 0.92,2.2 0.92,0.92 2.2,0.92 1.28,0 2.2,-0.92 0.92,-0.92 0.92,-2.2 0,-0.92 -0.4,-1.56 -0.48,-0.76 -1.16,-1.12 -0.8,-0.44 -1.56,-0.44 z m -4.84,10.12 q 1.12,0.2 1.6,0.56 0.48,0.4 0.48,1.48 v 11.96 q 0,1.24 -0.4,1.76 -0.4,0.52 -1.68,0.84 v 0.92 h 9.6 v -0.92 q -1,-0.12 -1.44,-0.68 -0.44,-0.56 -0.44,-1.68 v -15.16 h -7.72 z"
           style="font-style:normal;font-variant:normal;font-weight:bold;font-stretch:normal;font-size:40px;font-family:Cardiff;-inkscape-font-specification:'Cardiff Bold';fill:#ffffff"
           id="path718" />
        <path
           inkscape:connector-curvature="0"
           d="m 419.77648,582.49534 q 0,1.88 1.16,3.04 1.16,1.2 3.4,1.2 1.64,0 3.12,-0.96 1.44,-0.92 2.72,-3.52 l -1,-0.44 q -1.08,2.08 -2.2,2.08 -0.76,0 -1.2,-0.44 -0.44,-0.44 -0.44,-1.72 v -12.2 h 3.76 v -1.72 h -3.76 v -6.8 h -1 q -0.08,0.12 -0.44,0.64 -0.36,0.52 -0.44,0.64 -0.28,0.4 -1,1.28 -0.32,0.4 -0.52,0.64 -0.48,0.6 -0.52,0.64 -0.2,0.24 -1.12,1.16 -0.6,0.64 -1.2,1.24 -0.48,0.48 -1.4,1.28 v 1 h 2.08 z"
           style="font-style:normal;font-variant:normal;font-weight:bold;font-stretch:normal;font-size:40px;font-family:Cardiff;-inkscape-font-specification:'Cardiff Bold';fill:#ffffff"
           id="path720" />
        <path
           inkscape:connector-curvature="0"
           d="m 441.65773,574.77534 h -9.68 v 4.64 h 9.68 z"
           style="font-style:normal;font-variant:normal;font-weight:bold;font-stretch:normal;font-size:40px;font-family:Cardiff;-inkscape-font-specification:'Cardiff Bold';fill:#ffffff"
           id="path722" />
        <path
           inkscape:connector-curvature="0"
           d="m 457.53898,568.17534 q -2.04,-0.84 -4.4,-0.84 -2.12,0 -3.88,0.76 -0.92,0.4 -1.72,0.96 -0.72,0.56 -1.32,1.28 -1.2,1.56 -1.36,3.48 0,4.2 4.92,6.12 -1.84,0.52 -3.24,1.68 -1.36,1.12 -1.36,2.44 0,1.48 0.56,2.28 0.6,0.84 2.48,1.48 -0.72,0 -1.4,0.24 -0.8,0.36 -1.2,0.68 -1.08,0.92 -1.08,1.96 0.52,3.76 7.68,3.76 5.4,0 7.96,-1.48 2.56,-1.44 2.56,-4.52 0,-1.92 -0.96,-2.96 -0.96,-1.08 -2.4,-1.48 -1.48,-0.4 -3.64,-0.4 l -3.52,-0.08 q -1.48,0 -2.08,-0.36 -0.6,-0.32 -0.6,-1 0.68,-2.04 2.28,-2.04 l 1.8,-0.04 1.84,-0.08 1.28,-0.24 q 0.84,-0.16 1.64,-0.72 0.12,-0.08 0.52,-0.32 0.04,-0.04 0.28,-0.2 1,-0.92 1.48,-2.04 0.44,-1.12 0.44,-2.28 0,-1.28 -0.4,-2.24 -0.44,-1.04 -1.16,-1.64 h 3.2 v -2.16 z m -6.44,1.4 q 0.64,-0.96 2.04,-1 2.6,0 2.6,5.12 0,1.16 -0.12,2.2 -0.2,1.12 -0.36,1.72 -0.36,1.36 -2.2,1.36 -1.68,0 -2.16,-1.36 -0.48,-1.32 -0.48,-4 0,-2.92 0.68,-4.04 z m -1.64,18.8 h 7.76 q 1.32,0 1.84,0.52 0.56,0.56 0.56,1.36 l -0.04,0.4 -0.04,0.28 q -0.8,2.24 -5.92,2.24 -2.2,0 -3.76,-0.48 -1.6,-0.52 -1.8,-2.16 0.2,-1.36 1.4,-2.16 z"
           style="font-style:normal;font-variant:normal;font-weight:bold;font-stretch:normal;font-size:40px;font-family:Cardiff;-inkscape-font-specification:'Cardiff Bold';fill:#ffffff"
           id="path724" />
      </g>
      <g
         id="g782"
         transform="matrix(4.1568835,0,0,3.9673162,-162.55111,154.18939)">
        <circle
           r="20.554741"
           cy="75.526581"
           cx="111.98399"
           id="circle728"
           style="fill:#ffffff;fill-opacity:1;stroke-width:5.80000019;stroke-miterlimit:4;stroke-dasharray:none" />
        <path
           style="fill:#000088"
           d="M 116,75 A 3.5,3.5 0 0 1 112.5,78.5 3.5,3.5 0 0 1 109,75 3.5,3.5 0 0 1 112.5,71.5 3.5,3.5 0 0 1 116,75 Z"
           id="path730"
           inkscape:connector-curvature="0" />
        <path
           style="fill:#000088"
           inkscape:connector-curvature="0"
           id="path732"
           d="M 112.5,57.5 111.9,68 c 0,0 0.6,5 0.6,5 0,0 0.6,-5 0.6,-5 z" />
        <path
           style="fill:#000088"
           inkscape:connector-curvature="0"
           id="path734"
           d="m 117.11243,57.900121 -3.29716,9.98693 c 0,0 -0.71454,4.98492 -0.71454,4.98492 0,0 1.87365,-4.674338 1.87365,-4.674338 z" />
        <path
           style="fill:#000088"
           inkscape:connector-curvature="0"
           id="path736"
           d="m 121.34236,59.827941 -5.76962,8.793266 c 0,0 -1.98038,4.630126 -1.98038,4.630126 0,0 3.01961,-4.030127 3.01961,-4.030127 z" />
        <path
           style="fill:#000088"
           inkscape:connector-curvature="0"
           id="path738"
           d="m 125.0997,62.451201 -7.84889,7.000355 c 0,0 -3.11127,3.959799 -3.11127,3.959799 0,0 3.9598,-3.111271 3.9598,-3.111271 z" />
        <path
           style="fill:#000088"
           inkscape:connector-curvature="0"
           id="path740"
           d="m 127.61745,66.28922 -9.39327,4.730382 c 0,0 -4.03013,3.019616 -4.03013,3.019616 0,0 4.63013,-1.980386 4.63013,-1.980386 z" />
        <path
           style="fill:#000088"
           inkscape:connector-curvature="0"
           id="path742"
           d="m 129.47919,70.4364 -10.29752,2.138041 c 0,0 -4.67434,1.873651 -4.67434,1.873651 0,0 4.98493,-0.71454 4.98493,-0.71454 z" />
        <path
           style="fill:#000088"
           inkscape:connector-curvature="0"
           id="path744"
           d="m 129.88398,74.925263 -10.5,-0.600005 c 0,0 -5,0.599999 -5,0.599999 0,0 5,0.600002 5,0.600002 z" />
        <path
           style="fill:#000088"
           inkscape:connector-curvature="0"
           id="path746"
           d="m 129.47703,79.319746 -9.98692,-3.29716 c 0,0 -4.98492,-0.714541 -4.98492,-0.714541 0,0 4.67433,1.873653 4.67433,1.873653 z" />
        <path
           style="fill:#000088"
           inkscape:connector-curvature="0"
           id="path748"
           d="m 127.91259,83.642755 -8.79325,-5.769617 c 0,0 -4.63013,-1.980386 -4.63013,-1.980386 0,0 4.03012,3.019615 4.03012,3.019615 z" />
        <path
           style="fill:#000088"
           inkscape:connector-curvature="0"
           id="path750"
           d="m 125.1619,87.324173 -7.00034,-7.848883 c 0,0 -3.9598,-3.111272 -3.9598,-3.111272 0,0 3.11126,3.959796 3.11126,3.959796 z" />
        <path
           style="fill:#000088"
           inkscape:connector-curvature="0"
           id="path752"
           d="m 121.46246,90.050828 -4.73037,-9.39326 c 0,0 -3.01961,-4.030129 -3.01961,-4.030129 0,0 1.98037,4.630122 1.98037,4.630122 z" />
        <path
           style="fill:#000088"
           inkscape:connector-curvature="0"
           id="path754"
           d="M 117.12143,91.922438 114.9834,81.624935 c 0,0 -1.87365,-4.674338 -1.87365,-4.674338 0,0 0.71453,4.984912 0.71453,4.984912 z" />
        <path
           style="fill:#000088"
           inkscape:connector-curvature="0"
           id="path756"
           d="m 112.44894,92.519844 0.60002,-10.499987 c 0,0 -0.6,-5 -0.6,-5 0,0 -0.60001,4.999989 -0.60001,4.999989 z" />
        <path
           style="fill:#000088"
           inkscape:connector-curvature="0"
           id="path758"
           d="m 107.73312,91.957599 3.29718,-9.986912 c 0,0 0.71454,-4.98492 0.71454,-4.98492 0,0 -1.87366,4.674324 -1.87366,4.674324 z" />
        <path
           style="fill:#000088"
           inkscape:connector-curvature="0"
           id="path760"
           d="m 103.53066,90.18337 5.76963,-8.793243 c 0,0 1.98039,-4.630127 1.98039,-4.630127 0,0 -3.01962,4.030112 -3.01962,4.030112 z" />
        <path
           style="fill:#000088"
           inkscape:connector-curvature="0"
           id="path762"
           d="m 99.925607,87.285083 7.848893,-7.00033 c 0,0 3.11127,-3.959796 3.11127,-3.959796 0,0 -3.95979,3.111254 -3.95979,3.111254 z" />
        <path
           style="fill:#000088"
           inkscape:connector-curvature="0"
           id="path764"
           d="m 97.36066,83.680007 9.39328,-4.730356 c 0,0 4.03013,-3.019614 4.03013,-3.019614 0,0 -4.63012,1.980372 -4.63012,1.980372 z" />
        <path
           style="fill:#000088"
           inkscape:connector-curvature="0"
           id="path766"
           d="m 95.586418,79.477522 10.297552,-2.138013 c 0,0 4.67434,-1.873649 4.67434,-1.873649 0,0 -4.98491,0.714529 -4.98491,0.714529 z" />
        <path
           style="fill:#000088"
           inkscape:connector-curvature="0"
           id="path768"
           d="m 94.988992,74.805006 10.500078,0.60004 c 0,0 5,-0.599998 5,-0.599998 0,0 -4.99999,-0.600007 -4.99999,-0.600007 z" />
        <path
           style="fill:#000088"
           inkscape:connector-curvature="0"
           id="path770"
           d="m 95.69365,70.376235 9.98702,3.297215 c 0,0 4.98492,0.714542 4.98492,0.714542 0,0 -4.67432,-1.873655 -4.67432,-1.873655 z" />
        <path
           style="fill:#000088"
           inkscape:connector-curvature="0"
           id="path772"
           d="m 97.134537,66.173757 8.793363,5.769697 c 0,0 4.63012,1.980386 4.63012,1.980386 0,0 -4.03011,-3.019614 -4.03011,-3.019614 z" />
        <path
           style="fill:#000088"
           inkscape:connector-curvature="0"
           id="path774"
           d="m 100.03283,62.568671 7.00043,7.848989 c 0,0 3.95979,3.11127 3.95979,3.11127 0,0 -3.11126,-3.959793 -3.11126,-3.959793 z" />
        <path
           style="fill:#000088"
           inkscape:connector-curvature="0"
           id="path776"
           d="m 103.86913,59.723581 4.73043,9.393386 c 0,0 3.01961,4.030125 3.01961,4.030125 0,0 -1.98038,-4.63012 -1.98038,-4.63012 z" />
        <path
           style="fill:#000088"
           inkscape:connector-curvature="0"
           id="path778"
           d="m 108.07161,57.949351 2.13806,10.297639 c 0,0 1.87364,4.674334 1.87364,4.674334 0,0 -0.71454,-4.984912 -0.71454,-4.984912 z" />
        <path
           style="fill:#ffffff;fill-opacity:1"
           d="m 115.02882,75.057777 a 2.5129003,2.4918432 0 0 1 -2.5129,2.491843 2.5129003,2.4918432 0 0 1 -2.5129,-2.491843 2.5129003,2.4918432 0 0 1 2.5129,-2.491843 2.5129003,2.4918432 0 0 1 2.5129,2.491843 z"
           id="path780"
           inkscape:connector-curvature="0" />
      </g>
      <g
         style="font-style:normal;font-weight:normal;font-size:40px;line-height:125%;font-family:sans-serif;letter-spacing:0px;word-spacing:0px;fill:#ffffff;fill-opacity:1;stroke:none;stroke-width:1px;stroke-linecap:butt;stroke-linejoin:miter;stroke-opacity:1"
         id="g830"
         transform="matrix(1.3374509,0,0,1.3374509,-136.30378,-107.24021)">
        <path
           d="m 154.5706,683.23071 5.60547,1.77735 q -1.28906,4.6875 -4.29687,6.97265 -2.98829,2.26563 -7.59766,2.26563 -5.70313,0 -9.375,-3.88672 -3.67188,-3.90625 -3.67188,-10.66406 0,-7.14844 3.69141,-11.09375 3.69141,-3.96485 9.70703,-3.96485 5.25391,0 8.53516,3.10547 1.95312,1.83594 2.92969,5.27344 l -5.72266,1.36719 q -0.50781,-2.22657 -2.12891,-3.51563 -1.60156,-1.28906 -3.90625,-1.28906 -3.18359,0 -5.17578,2.28516 -1.97265,2.28515 -1.97265,7.40234 0,5.42969 1.95312,7.73437 1.95313,2.30469 5.07813,2.30469 2.30468,0 3.96484,-1.46484 1.66016,-1.46485 2.38281,-4.60938 z"
           style="font-style:normal;font-variant:normal;font-weight:bold;font-stretch:normal;font-family:Arial;-inkscape-font-specification:'Arial Bold';fill:#ffffff"
           id="path784"
           inkscape:connector-curvature="0" />
        <path
           d="m 177.1292,687.15649 5.46875,0.91797 q -1.05469,3.00782 -3.33985,4.58985 -2.26562,1.5625 -5.68359,1.5625 -5.41016,0 -8.00781,-3.53516 -2.05079,-2.83203 -2.05079,-7.14844 0,-5.15625 2.69532,-8.0664 2.69531,-2.92969 6.8164,-2.92969 4.62891,0 7.30469,3.06641 2.67578,3.04687 2.55859,9.35546 h -13.75 q 0.0586,2.44141 1.32813,3.8086 1.26953,1.34765 3.16406,1.34765 1.28906,0 2.16797,-0.70312 0.87891,-0.70313 1.32813,-2.26563 z m 0.3125,-5.54687 q -0.0586,-2.38281 -1.23047,-3.61328 -1.17188,-1.25 -2.85157,-1.25 -1.79687,0 -2.96875,1.30859 -1.17187,1.3086 -1.15234,3.55469 z"
           style="font-style:normal;font-variant:normal;font-weight:bold;font-stretch:normal;font-family:Arial;-inkscape-font-specification:'Arial Bold';fill:#ffffff"
           id="path786"
           inkscape:connector-curvature="0" />
        <path
           d="m 206.25029,693.75806 h -5.48828 v -10.58594 q 0,-3.35938 -0.35156,-4.33594 -0.35157,-0.99609 -1.15235,-1.54297 -0.78125,-0.54687 -1.89453,-0.54687 -1.42578,0 -2.55859,0.78125 -1.13282,0.78125 -1.5625,2.07031 -0.41016,1.28906 -0.41016,4.76563 v 9.39453 h -5.48828 v -20.74219 h 5.09766 v 3.04687 q 2.71484,-3.51562 6.83593,-3.51562 1.81641,0 3.32032,0.66406 1.5039,0.64453 2.26562,1.66016 0.78125,1.01562 1.07422,2.30469 0.3125,1.28906 0.3125,3.6914 z"
           style="font-style:normal;font-variant:normal;font-weight:bold;font-stretch:normal;font-family:Arial;-inkscape-font-specification:'Arial Bold';fill:#ffffff"
           id="path788"
           inkscape:connector-curvature="0" />
        <path
           d="m 221.34795,673.01587 v 4.375 h -3.75 v 8.35937 q 0,2.53907 0.0977,2.96875 0.11719,0.41016 0.48828,0.6836 0.39063,0.27344 0.9375,0.27344 0.76172,0 2.20703,-0.52735 l 0.46875,4.25781 q -1.91406,0.82032 -4.33593,0.82032 -1.48438,0 -2.67578,-0.48828 -1.19141,-0.50782 -1.75782,-1.28907 -0.54687,-0.80078 -0.76172,-2.14843 -0.17578,-0.95704 -0.17578,-3.86719 v -9.04297 h -2.51953 v -4.375 h 2.51953 v -4.12109 l 5.50782,-3.20313 v 7.32422 h 3.75 z"
           style="font-style:normal;font-variant:normal;font-weight:bold;font-stretch:normal;font-family:Arial;-inkscape-font-specification:'Arial Bold';fill:#ffffff"
           id="path790"
           inkscape:connector-curvature="0" />
        <path
           d="m 230.44951,693.75806 h -5.48828 v -20.74219 h 5.09765 v 2.94922 q 1.3086,-2.08985 2.34375,-2.75391 1.05469,-0.66406 2.38282,-0.66406 1.875,0 3.61328,1.03516 l -1.69922,4.78515 q -1.38672,-0.89844 -2.57813,-0.89844 -1.15234,0 -1.95312,0.64454 -0.80078,0.625 -1.26953,2.28515 -0.44922,1.66016 -0.44922,6.95313 z"
           style="font-style:normal;font-variant:normal;font-weight:bold;font-stretch:normal;font-family:Arial;-inkscape-font-specification:'Arial Bold';fill:#ffffff"
           id="path792"
           inkscape:connector-curvature="0" />
        <path
           d="m 252.7542,687.15649 5.46875,0.91797 q -1.05469,3.00782 -3.33985,4.58985 -2.26562,1.5625 -5.68359,1.5625 -5.41016,0 -8.00781,-3.53516 -2.05079,-2.83203 -2.05079,-7.14844 0,-5.15625 2.69532,-8.0664 2.69531,-2.92969 6.8164,-2.92969 4.62891,0 7.30469,3.06641 2.67578,3.04687 2.55859,9.35546 h -13.75 q 0.0586,2.44141 1.32813,3.8086 1.26953,1.34765 3.16406,1.34765 1.28906,0 2.16797,-0.70312 0.87891,-0.70313 1.32813,-2.26563 z m 0.3125,-5.54687 q -0.0586,-2.38281 -1.23047,-3.61328 -1.17188,-1.25 -2.85157,-1.25 -1.79687,0 -2.96875,1.30859 -1.17187,1.3086 -1.15234,3.55469 z"
           style="font-style:normal;font-variant:normal;font-weight:bold;font-stretch:normal;font-family:Arial;-inkscape-font-specification:'Arial Bold';fill:#ffffff"
           id="path794"
           inkscape:connector-curvature="0" />
        <path
           d="m 271.69951,673.01587 h 3.04687 v -1.5625 q 0,-2.61719 0.54688,-3.90625 0.5664,-1.28906 2.05078,-2.08984 1.50391,-0.82032 3.78906,-0.82032 2.34375,0 4.58985,0.70313 l -0.74219,3.82812 q -1.3086,-0.3125 -2.51953,-0.3125 -1.19141,0 -1.71875,0.56641 -0.50782,0.54687 -0.50782,2.12891 v 1.46484 h 4.10157 v 4.31641 h -4.10157 v 16.42578 h -5.48828 v -16.42578 h -3.04687 z"
           style="font-style:normal;font-variant:normal;font-weight:bold;font-stretch:normal;font-family:Arial;-inkscape-font-specification:'Arial Bold';fill:#ffffff"
           id="path796"
           inkscape:connector-curvature="0" />
        <path
           d="m 286.1917,683.09399 q 0,-2.73437 1.34765,-5.29296 1.34766,-2.5586 3.8086,-3.90625 2.48046,-1.34766 5.52734,-1.34766 4.70703,0 7.71484,3.06641 3.00782,3.04687 3.00782,7.71484 0,4.70703 -3.04688,7.8125 -3.02734,3.08594 -7.63672,3.08594 -2.85156,0 -5.44922,-1.28907 -2.57812,-1.28906 -3.92578,-3.76953 -1.34765,-2.5 -1.34765,-6.07422 z m 5.625,0.29297 q 0,3.08594 1.46484,4.72657 1.46484,1.64062 3.61328,1.64062 2.14844,0 3.59375,-1.64062 1.46484,-1.64063 1.46484,-4.76563 0,-3.04687 -1.46484,-4.6875 -1.44531,-1.64062 -3.59375,-1.64062 -2.14844,0 -3.61328,1.64062 -1.46484,1.64063 -1.46484,4.72656 z"
           style="font-style:normal;font-variant:normal;font-weight:bold;font-stretch:normal;font-family:Arial;-inkscape-font-specification:'Arial Bold';fill:#ffffff"
           id="path798"
           inkscape:connector-curvature="0" />
        <path
           d="m 317.16826,693.75806 h -5.48828 v -20.74219 h 5.09765 v 2.94922 q 1.3086,-2.08985 2.34375,-2.75391 1.05469,-0.66406 2.38282,-0.66406 1.875,0 3.61328,1.03516 l -1.69922,4.78515 q -1.38672,-0.89844 -2.57813,-0.89844 -1.15234,0 -1.95312,0.64454 -0.80078,0.625 -1.26953,2.28515 -0.44922,1.66016 -0.44922,6.95313 z"
           style="font-style:normal;font-variant:normal;font-weight:bold;font-stretch:normal;font-family:Arial;-inkscape-font-specification:'Arial Bold';fill:#ffffff"
           id="path800"
           inkscape:connector-curvature="0" />
        <path
           d="m 338.65263,693.75806 v -28.63282 h 5.625 l 11.71875,19.1211 v -19.1211 h 5.3711 v 28.63282 h -5.80078 l -11.54297,-18.67188 v 18.67188 z"
           style="font-style:normal;font-variant:normal;font-weight:bold;font-stretch:normal;font-family:Arial;-inkscape-font-specification:'Arial Bold';fill:#ffffff"
           id="path802"
           inkscape:connector-curvature="0" />
        <path
           d="m 371.56279,679.34399 -4.98047,-0.89843 q 0.83984,-3.00782 2.89063,-4.45313 2.05078,-1.44531 6.09375,-1.44531 3.67187,0 5.46875,0.87891 1.79687,0.85937 2.51953,2.20703 0.74218,1.32812 0.74218,4.90234 l -0.0586,6.40625 q 0,2.73438 0.25391,4.04297 0.27343,1.28906 0.99609,2.77344 h -5.42969 q -0.21484,-0.54688 -0.52734,-1.6211 -0.13672,-0.48828 -0.19531,-0.64453 -1.40625,1.36719 -3.00782,2.05078 -1.60156,0.6836 -3.41796,0.6836 -3.20313,0 -5.0586,-1.73828 -1.83594,-1.73829 -1.83594,-4.39454 0,-1.75781 0.83985,-3.125 0.83984,-1.38671 2.34375,-2.10937 1.52344,-0.74219 4.375,-1.28906 3.84765,-0.72266 5.33203,-1.34766 v -0.54687 q 0,-1.58204 -0.78125,-2.2461 -0.78125,-0.68359 -2.94922,-0.68359 -1.46484,0 -2.28516,0.58594 -0.82031,0.5664 -1.32812,2.01171 z m 7.34375,4.45313 q -1.05469,0.35156 -3.33984,0.83984 -2.28516,0.48828 -2.98829,0.95703 -1.07421,0.76172 -1.07421,1.9336 0,1.15234 0.85937,1.99219 0.85938,0.83984 2.1875,0.83984 1.48438,0 2.83203,-0.97656 0.9961,-0.74219 1.3086,-1.81641 0.21484,-0.70312 0.21484,-2.67578 z"
           style="font-style:normal;font-variant:normal;font-weight:bold;font-stretch:normal;font-family:Arial;-inkscape-font-specification:'Arial Bold';fill:#ffffff"
           id="path804"
           inkscape:connector-curvature="0" />
        <path
           d="m 408.59404,693.75806 h -5.48828 v -10.58594 q 0,-3.35938 -0.35156,-4.33594 -0.35157,-0.99609 -1.15235,-1.54297 -0.78125,-0.54687 -1.89453,-0.54687 -1.42578,0 -2.55859,0.78125 -1.13282,0.78125 -1.5625,2.07031 -0.41016,1.28906 -0.41016,4.76563 v 9.39453 h -5.48828 v -20.74219 h 5.09766 v 3.04687 q 2.71484,-3.51562 6.83593,-3.51562 1.81641,0 3.32032,0.66406 1.5039,0.64453 2.26562,1.66016 0.78125,1.01562 1.07422,2.30469 0.3125,1.28906 0.3125,3.6914 z"
           style="font-style:normal;font-variant:normal;font-weight:bold;font-stretch:normal;font-family:Arial;-inkscape-font-specification:'Arial Bold';fill:#ffffff"
           id="path806"
           inkscape:connector-curvature="0" />
        <path
           d="m 412.91045,683.09399 q 0,-2.73437 1.34765,-5.29296 1.34766,-2.5586 3.8086,-3.90625 2.48046,-1.34766 5.52734,-1.34766 4.70703,0 7.71484,3.06641 3.00782,3.04687 3.00782,7.71484 0,4.70703 -3.04688,7.8125 -3.02734,3.08594 -7.63672,3.08594 -2.85156,0 -5.44922,-1.28907 -2.57812,-1.28906 -3.92578,-3.76953 -1.34765,-2.5 -1.34765,-6.07422 z m 5.625,0.29297 q 0,3.08594 1.46484,4.72657 1.46484,1.64062 3.61328,1.64062 2.14844,0 3.59375,-1.64062 1.46484,-1.64063 1.46484,-4.76563 0,-3.04687 -1.46484,-4.6875 -1.44531,-1.64062 -3.59375,-1.64062 -2.14844,0 -3.61328,1.64062 -1.46484,1.64063 -1.46484,4.72656 z"
           style="font-style:normal;font-variant:normal;font-weight:bold;font-stretch:normal;font-family:Arial;-inkscape-font-specification:'Arial Bold';fill:#ffffff"
           id="path808"
           inkscape:connector-curvature="0" />
        <path
           d="m 448.14482,673.01587 v 4.375 h -3.75 v 8.35937 q 0,2.53907 0.0977,2.96875 0.11718,0.41016 0.48828,0.6836 0.39062,0.27344 0.9375,0.27344 0.76172,0 2.20703,-0.52735 l 0.46875,4.25781 q -1.91406,0.82032 -4.33594,0.82032 -1.48437,0 -2.67578,-0.48828 -1.19141,-0.50782 -1.75781,-1.28907 -0.54688,-0.80078 -0.76172,-2.14843 -0.17578,-0.95704 -0.17578,-3.86719 v -9.04297 h -2.51953 v -4.375 h 2.51953 v -4.12109 l 5.50781,-3.20313 v 7.32422 h 3.75 z"
           style="font-style:normal;font-variant:normal;font-weight:bold;font-stretch:normal;font-family:Arial;-inkscape-font-specification:'Arial Bold';fill:#ffffff"
           id="path810"
           inkscape:connector-curvature="0" />
        <path
           d="m 464.0042,687.15649 5.46875,0.91797 q -1.05469,3.00782 -3.33985,4.58985 -2.26562,1.5625 -5.68359,1.5625 -5.41016,0 -8.00781,-3.53516 -2.05079,-2.83203 -2.05079,-7.14844 0,-5.15625 2.69532,-8.0664 2.69531,-2.92969 6.8164,-2.92969 4.62891,0 7.30469,3.06641 2.67578,3.04687 2.55859,9.35546 h -13.75 q 0.0586,2.44141 1.32813,3.8086 1.26953,1.34765 3.16406,1.34765 1.28906,0 2.16797,-0.70312 0.87891,-0.70313 1.32813,-2.26563 z m 0.3125,-5.54687 q -0.0586,-2.38281 -1.23047,-3.61328 -1.17188,-1.25 -2.85157,-1.25 -1.79687,0 -2.96875,1.30859 -1.17187,1.3086 -1.15234,3.55469 z"
           style="font-style:normal;font-variant:normal;font-weight:bold;font-stretch:normal;font-family:Arial;-inkscape-font-specification:'Arial Bold';fill:#ffffff"
           id="path812"
           inkscape:connector-curvature="0" />
        <path
           d="m 492.34404,679.14868 -5.41016,0.97656 q -0.27343,-1.62109 -1.25,-2.4414 -0.95703,-0.82031 -2.5,-0.82031 -2.05078,0 -3.28125,1.42578 -1.21093,1.40625 -1.21093,4.72656 0,3.69141 1.23046,5.21484 1.25,1.52344 3.33985,1.52344 1.5625,0 2.55859,-0.87891 0.9961,-0.89843 1.40625,-3.0664 l 5.39063,0.91797 q -0.83985,3.71093 -3.22266,5.60547 -2.38281,1.89453 -6.38672,1.89453 -4.55078,0 -7.26562,-2.8711 -2.69532,-2.87109 -2.69532,-7.94922 0,-5.13671 2.71485,-7.98828 2.71484,-2.87109 7.34375,-2.87109 3.78906,0 6.01562,1.64062 2.2461,1.6211 3.22266,4.96094 z"
           style="font-style:normal;font-variant:normal;font-weight:bold;font-stretch:normal;font-family:Arial;-inkscape-font-specification:'Arial Bold';fill:#ffffff"
           id="path814"
           inkscape:connector-curvature="0" />
        <path
           d="m 501.99248,665.12524 v 10.52735 q 2.65625,-3.10547 6.34765,-3.10547 1.89453,0 3.41797,0.70312 1.52344,0.70313 2.28516,1.79688 0.78125,1.09375 1.05469,2.42187 0.29296,1.32813 0.29296,4.1211 v 12.16797 h -5.48828 v -10.95703 q 0,-3.26172 -0.3125,-4.14063 -0.3125,-0.87891 -1.11328,-1.38672 -0.78125,-0.52734 -1.97265,-0.52734 -1.36719,0 -2.44141,0.66406 -1.07422,0.66406 -1.58203,2.01172 -0.48828,1.32812 -0.48828,3.94531 v 10.39063 h -5.48828 v -28.63282 z"
           style="font-style:normal;font-variant:normal;font-weight:bold;font-stretch:normal;font-family:Arial;-inkscape-font-specification:'Arial Bold';fill:#ffffff"
           id="path816"
           inkscape:connector-curvature="0" />
        <path
           d="m 539.84404,693.75806 h -5.48828 v -10.58594 q 0,-3.35938 -0.35156,-4.33594 -0.35157,-0.99609 -1.15235,-1.54297 -0.78125,-0.54687 -1.89453,-0.54687 -1.42578,0 -2.55859,0.78125 -1.13282,0.78125 -1.5625,2.07031 -0.41016,1.28906 -0.41016,4.76563 v 9.39453 h -5.48828 v -20.74219 h 5.09766 v 3.04687 q 2.71484,-3.51562 6.83593,-3.51562 1.81641,0 3.32032,0.66406 1.5039,0.64453 2.26562,1.66016 0.78125,1.01562 1.07422,2.30469 0.3125,1.28906 0.3125,3.6914 z"
           style="font-style:normal;font-variant:normal;font-weight:bold;font-stretch:normal;font-family:Arial;-inkscape-font-specification:'Arial Bold';fill:#ffffff"
           id="path818"
           inkscape:connector-curvature="0" />
        <path
           d="m 544.16045,683.09399 q 0,-2.73437 1.34765,-5.29296 1.34766,-2.5586 3.8086,-3.90625 2.48046,-1.34766 5.52734,-1.34766 4.70703,0 7.71484,3.06641 3.00782,3.04687 3.00782,7.71484 0,4.70703 -3.04688,7.8125 -3.02734,3.08594 -7.63672,3.08594 -2.85156,0 -5.44922,-1.28907 -2.57812,-1.28906 -3.92578,-3.76953 -1.34765,-2.5 -1.34765,-6.07422 z m 5.625,0.29297 q 0,3.08594 1.46484,4.72657 1.46484,1.64062 3.61328,1.64062 2.14844,0 3.59375,-1.64062 1.46484,-1.64063 1.46484,-4.76563 0,-3.04687 -1.46484,-4.6875 -1.44531,-1.64062 -3.59375,-1.64062 -2.14844,0 -3.61328,1.64062 -1.46484,1.64063 -1.46484,4.72656 z"
           style="font-style:normal;font-variant:normal;font-weight:bold;font-stretch:normal;font-family:Arial;-inkscape-font-specification:'Arial Bold';fill:#ffffff"
           id="path820"
           inkscape:connector-curvature="0" />
        <path
           d="m 569.8831,693.75806 v -28.63282 h 5.48828 v 28.63282 z"
           style="font-style:normal;font-variant:normal;font-weight:bold;font-stretch:normal;font-family:Arial;-inkscape-font-specification:'Arial Bold';fill:#ffffff"
           id="path822"
           inkscape:connector-curvature="0" />
        <path
           d="m 579.70732,683.09399 q 0,-2.73437 1.34766,-5.29296 1.34765,-2.5586 3.80859,-3.90625 2.48047,-1.34766 5.52734,-1.34766 4.70704,0 7.71485,3.06641 3.00781,3.04687 3.00781,7.71484 0,4.70703 -3.04687,7.8125 -3.02735,3.08594 -7.63672,3.08594 -2.85157,0 -5.44922,-1.28907 -2.57813,-1.28906 -3.92578,-3.76953 -1.34766,-2.5 -1.34766,-6.07422 z m 5.625,0.29297 q 0,3.08594 1.46484,4.72657 1.46485,1.64062 3.61329,1.64062 2.14843,0 3.59375,-1.64062 1.46484,-1.64063 1.46484,-4.76563 0,-3.04687 -1.46484,-4.6875 -1.44532,-1.64062 -3.59375,-1.64062 -2.14844,0 -3.61329,1.64062 -1.46484,1.64063 -1.46484,4.72656 z"
           style="font-style:normal;font-variant:normal;font-weight:bold;font-stretch:normal;font-family:Arial;-inkscape-font-specification:'Arial Bold';fill:#ffffff"
           id="path824"
           inkscape:connector-curvature="0" />
        <path
           d="m 604.92216,695.12524 6.26954,0.76172 q 0.15625,1.09375 0.72265,1.50391 0.78125,0.58594 2.46094,0.58594 2.14844,0 3.22266,-0.64453 0.72265,-0.42969 1.09375,-1.38672 0.2539,-0.6836 0.2539,-2.51953 v -3.02735 q -2.46094,3.35938 -6.21094,3.35938 -4.17968,0 -6.62109,-3.53516 -1.91406,-2.79297 -1.91406,-6.95312 0,-5.21485 2.5,-7.96875 2.51953,-2.75391 6.25,-2.75391 3.84765,0 6.34765,3.37891 v -2.91016 h 5.13672 v 18.61328 q 0,3.67188 -0.60547,5.48828 -0.60546,1.81641 -1.69921,2.85156 -1.09375,1.03516 -2.92969,1.6211 -1.81641,0.58594 -4.60938,0.58594 -5.27343,0 -7.48047,-1.81641 -2.20703,-1.79688 -2.20703,-4.57031 0,-0.27344 0.0195,-0.66407 z m 4.90235,-12.16796 q 0,3.30078 1.26953,4.84375 1.28906,1.52343 3.16406,1.52343 2.01172,0 3.39844,-1.5625 1.38672,-1.58203 1.38672,-4.66797 0,-3.22265 -1.32813,-4.78515 -1.32812,-1.5625 -3.35937,-1.5625 -1.97266,0 -3.26172,1.54297 -1.26953,1.52343 -1.26953,4.66797 z"
           style="font-style:normal;font-variant:normal;font-weight:bold;font-stretch:normal;font-family:Arial;-inkscape-font-specification:'Arial Bold';fill:#ffffff"
           id="path826"
           inkscape:connector-curvature="0" />
        <path
           d="m 627.28545,673.01587 h 5.83984 l 4.96094,14.72656 4.84375,-14.72656 h 5.68359 l -7.32422,19.96094 -1.30859,3.61328 q -0.72266,1.8164 -1.38672,2.77344 -0.64453,0.95703 -1.50391,1.54296 -0.83984,0.60547 -2.08984,0.9375 -1.23047,0.33204 -2.79297,0.33204 -1.58203,0 -3.10547,-0.33204 l -0.48828,-4.29687 q 1.28906,0.25391 2.32422,0.25391 1.91406,0 2.83203,-1.13282 0.91797,-1.11328 1.40625,-2.85156 z"
           style="font-style:normal;font-variant:normal;font-weight:bold;font-stretch:normal;font-family:Arial;-inkscape-font-specification:'Arial Bold';fill:#ffffff"
           id="path828"
           inkscape:connector-curvature="0" />
      </g>
    </g>
    <g
       id="g4288"
       transform="matrix(0.84447676,0,0,0.84447676,-25.802096,330.5157)">
      <g
         transform="matrix(1.3374509,0,0,1.3374509,-10.774463,-43.042565)"
         id="g3419">
        <g
           id="g4317"
           transform="matrix(1.7896233,0,0,1.7080107,-231.57056,-298.68449)">
          <path
             d="m 299.18826,330.9888 -37.00084,64.08735 h -74.0017 l -37.00084,-64.08735 37.00084,-64.08735 h 74.0017 z"
             inkscape:randomized="0"
             inkscape:rounded="0"
             inkscape:flatsided="true"
             sodipodi:arg2="0.52359878"
             sodipodi:arg1="0"
             sodipodi:r2="64.087341"
             sodipodi:r1="74.001694"
             sodipodi:cy="330.9888"
             sodipodi:cx="225.18657"
             sodipodi:sides="6"
             id="path3340"
             style="fill:#35469d;fill-opacity:1;stroke-width:5.80000019;stroke-miterlimit:4;stroke-dasharray:none"
             sodipodi:type="star" />
          <path
             d="m 289.91489,330.70761 -32.54797,56.37474 h -65.09594 l -32.54797,-56.37474 32.54797,-56.37474 h 65.09594 z"
             inkscape:randomized="0"
             inkscape:rounded="0"
             inkscape:flatsided="true"
             sodipodi:arg2="0.52359878"
             sodipodi:arg1="0"
             sodipodi:r2="56.374737"
             sodipodi:r1="65.09594"
             sodipodi:cy="330.70761"
             sodipodi:cx="224.81895"
             sodipodi:sides="6"
             id="path3340-3"
             style="fill:#ffffff;fill-opacity:1;stroke-width:5.80000019;stroke-miterlimit:4;stroke-dasharray:none"
             sodipodi:type="star" />
        </g>
        <g
           transform="matrix(1.3688029,-0.75423945,0.79027872,1.306381,-888.57118,215.55896)"
           style="font-style:normal;font-weight:normal;font-size:40px;line-height:125%;font-family:sans-serif;letter-spacing:0px;word-spacing:0px;fill:#f01c23;fill-opacity:1;stroke:none;stroke-width:1px;stroke-linecap:butt;stroke-linejoin:miter;stroke-opacity:1"
           id="flowRoot3412">
          <path
             inkscape:connector-curvature="0"
             d="m 542.41219,357.03006 -0.6,4.92 q 0,3.42 1.14,6.66 1.02,3.18 3,6 1.92,2.7 4.32,4.5 2.46,1.8 5.46,2.64 3.72,1.08 7.5,1.08 4.8,0 9.06,-2.1 4.44,-2.16 7.98,-6.6 l -1.8,-1.5 q -0.54,0.84 -1.56,1.86 -0.96,0.9 -2.16,1.8 -1.14,0.9 -2.4,1.56 -1.2,0.66 -2.58,1.2 -1.2,0.48 -2.7,0.78 -1.5,0.3 -2.64,0.3 -2.88,0 -5.28,-1.38 -2.28,-1.32 -3.96,-3.9 -1.26,-1.86 -1.92,-5.82 -0.36,-2.28 -0.54,-4.32 -0.24,-1.86 -0.24,-4.08 l 0.12,-2.88 q 0,-4.02 0.96,-6.96 1.02,-3 2.52,-4.86 2.94,-3.66 7.5,-3.66 2.58,0 5.34,1.5 2.82,1.56 5.04,4.2 2.34,2.88 3.72,6.48 h 1.5 v -14.04 h -1.62 q -0.84,2.28 -2.04,2.64 l -0.66,0.12 -2.46,-0.72 q -1.02,-0.36 -1.74,-0.66 -0.24,-0.12 -0.3,-0.12 -0.12,-0.06 -0.42,-0.12 -0.36,-0.06 -0.6,-0.12 -3.6,-1.14 -6.9,-1.14 -4.68,0 -9,2.16 -2.16,1.2 -3.9,2.7 -1.8,1.5 -3.24,3.36 -2.94,3.84 -3.9,8.52 z"
             style="font-style:normal;font-variant:normal;font-weight:bold;font-stretch:normal;font-size:60px;font-family:Cardiff;-inkscape-font-specification:'Cardiff Bold';fill:#f01c23;fill-opacity:1"
             id="path3475" />
        </g>
      </g>
      <g
         transform="matrix(1.3374509,0,0,1.3374509,-155.0281,-62.149006)"
         id="g3426">
        <g
           id="g4321"
           transform="matrix(1.7896233,0,0,1.7080107,-137.14321,-292.26278)">
          <path
             d="m 417.2505,399.159 -37.00084,64.08734 h -74.0017 L 269.24712,399.159 306.24796,335.07165 h 74.0017 z"
             inkscape:randomized="0"
             inkscape:rounded="0"
             inkscape:flatsided="true"
             sodipodi:arg2="0.52359878"
             sodipodi:arg1="0"
             sodipodi:r2="64.087341"
             sodipodi:r1="74.001694"
             sodipodi:cy="399.159"
             sodipodi:cx="343.24881"
             sodipodi:sides="6"
             id="path3340-6"
             style="fill:#fdbe0d;fill-opacity:1;stroke-width:5.80000019;stroke-miterlimit:4;stroke-dasharray:none"
             sodipodi:type="star" />
          <path
             d="m 407.97713,398.87781 -32.54797,56.37474 h -65.09593 l -32.54797,-56.37474 32.54797,-56.37474 h 65.09593 z"
             inkscape:randomized="0"
             inkscape:rounded="0"
             inkscape:flatsided="true"
             sodipodi:arg2="0.52359878"
             sodipodi:arg1="0"
             sodipodi:r2="56.374737"
             sodipodi:r1="65.09594"
             sodipodi:cy="398.87781"
             sodipodi:cx="342.8812"
             sodipodi:sides="6"
             id="path3340-3-7"
             style="fill:#0a8141;fill-opacity:1;stroke-width:5.80000019;stroke-miterlimit:4;stroke-dasharray:none"
             sodipodi:type="star" />
        </g>
        <g
           transform="matrix(1.6854905,-0.92874107,0.97311841,1.6086267,-797.2603,316.18538)"
           style="font-style:normal;font-weight:normal;font-size:40px;line-height:125%;font-family:sans-serif;letter-spacing:0px;word-spacing:0px;fill:#fdfdfc;fill-opacity:1;stroke:none;stroke-width:1px;stroke-linecap:butt;stroke-linejoin:miter;stroke-opacity:1"
           id="flowRoot3412-3">
          <path
             inkscape:connector-curvature="0"
             d="m 543.31219,376.11006 q 0,2.82 1.74,4.56 1.74,1.8 5.1,1.8 2.46,0 4.68,-1.44 2.16,-1.38 4.08,-5.28 l -1.5,-0.66 q -1.62,3.12 -3.3,3.12 -1.14,0 -1.8,-0.66 -0.66,-0.66 -0.66,-2.58 v -18.3 h 5.64 v -2.58 h -5.64 v -10.2 h -1.5 q -0.12,0.18 -0.66,0.96 -0.54,0.78 -0.66,0.96 -0.42,0.6 -1.5,1.92 -0.48,0.6 -0.78,0.96 -0.72,0.9 -0.78,0.96 -0.3,0.36 -1.68,1.74 -0.9,0.96 -1.8,1.86 -0.72,0.72 -2.1,1.92 v 1.5 h 3.12 z"
             style="font-style:normal;font-variant:normal;font-weight:bold;font-stretch:normal;font-size:60px;font-family:Cardiff;-inkscape-font-specification:'Cardiff Bold';fill:#fdfdfc;fill-opacity:1"
             id="path3478" />
        </g>
      </g>
      <g
         transform="matrix(1.3374509,0,0,1.3374509,-164.58132,-332.50515)"
         id="g3433">
        <g
           id="g4348"
           transform="matrix(1.7896233,0,0,1.7080107,-47.074026,-217.05123)">
          <path
             d="m 259.95609,537.4585 -37.00085,64.08734 h -74.0017 L 111.9527,537.4585 148.95354,473.37115 h 74.0017 z"
             inkscape:randomized="0"
             inkscape:rounded="0"
             inkscape:flatsided="true"
             sodipodi:arg2="0.52359878"
             sodipodi:arg1="0"
             sodipodi:r2="64.087341"
             sodipodi:r1="74.001694"
             sodipodi:cy="537.4585"
             sodipodi:cx="185.95439"
             sodipodi:sides="6"
             id="path3340-35"
             style="fill:#ed1d28;fill-opacity:1;stroke-width:5.80000019;stroke-miterlimit:4;stroke-dasharray:none"
             sodipodi:type="star" />
          <path
             d="m 250.68272,537.17731 -32.54797,56.37473 h -65.09594 l -32.54797,-56.37473 32.54797,-56.37474 h 65.09594 z"
             inkscape:randomized="0"
             inkscape:rounded="0"
             inkscape:flatsided="true"
             sodipodi:arg2="0.52359878"
             sodipodi:arg1="0"
             sodipodi:r2="56.374737"
             sodipodi:r1="65.09594"
             sodipodi:cy="537.17731"
             sodipodi:cx="185.58678"
             sodipodi:sides="6"
             id="path3340-3-6"
             style="fill:#f26722;fill-opacity:1;stroke-width:5.80000019;stroke-miterlimit:4;stroke-dasharray:none"
             sodipodi:type="star" />
        </g>
        <g
           transform="matrix(1.8031024,-0.99354771,1.0410217,1.7208751,-1094.2726,618.942)"
           style="font-style:normal;font-weight:normal;font-size:40px;line-height:125%;font-family:sans-serif;letter-spacing:0px;word-spacing:0px;fill:#2e4699;fill-opacity:1;stroke:none;stroke-width:1px;stroke-linecap:butt;stroke-linejoin:miter;stroke-opacity:1"
           id="flowRoot3412-35">
          <path
             inkscape:connector-curvature="0"
             d="m 543.43219,359.37006 v 17.58 q 0,1.86 -0.78,2.4 -0.72,0.54 -2.46,1.02 v 1.38 h 14.4 v -1.38 q -1.26,0 -2.1,-0.9 -0.72,-0.9 -0.72,-2.28 v -16.44 q 2.46,-3.36 5.4,-3.36 1.68,0.18 2.28,1.32 0.66,1.2 0.66,3.24 v 15.12 q 0,2.94 -2.94,3.3 v 1.38 h 14.04 v -1.38 q -1.38,0 -2.1,-1.02 -0.72,-1.02 -0.72,-2.4 v -15.72 q -0.24,-3.18 -2.1,-5.58 -1.8,-2.28 -6.18,-2.28 -2.34,0 -4.62,1.26 -2.22,1.38 -3.72,3.78 v -4.32 h -11.58 v 1.38 l 1.2,0.24 q 0.84,0.18 1.26,0.72 0.78,0.78 0.78,2.94 z"
             style="font-style:normal;font-variant:normal;font-weight:bold;font-stretch:normal;font-size:60px;font-family:Cardiff;-inkscape-font-specification:'Cardiff Bold';fill:#2e4699;fill-opacity:1"
             id="path3481" />
        </g>
      </g>
      <g
         id="flowRoot4492"
         style="font-style:normal;font-weight:normal;font-size:40px;line-height:125%;font-family:sans-serif;letter-spacing:0px;word-spacing:0px;fill:#ffffff;fill-opacity:1;stroke:none;stroke-width:1px;stroke-linecap:butt;stroke-linejoin:miter;stroke-opacity:1"
         transform="matrix(2.3935333,0,0,2.2843804,-495.61974,-629.9092)">
        <path
           id="path3484"
           style="font-style:italic;font-variant:normal;font-weight:bold;font-stretch:normal;font-family:Cardiff;-inkscape-font-specification:'Cardiff Bold Italic';fill:#ffffff"
           d="m 367.26773,564.05534 q -1.68,2.08 -2.52,4.44 -0.88,2.28 -0.88,4.8 0,1.12 0.24,2.16 0.2,1.04 0.6,2.12 1.76,4.48 5.64,6.96 3.88,2.44 8.64,2.44 4.08,0 8.92,-2.36 l -0.56,-1.4 q -1.92,0.92 -4,1.44 -1.92,0.52 -3.88,0.52 l -1.32,-0.08 q -0.96,0 -2.12,-0.36 -0.96,-0.24 -2.12,-0.8 -2.12,-1.08 -3.48,-2.68 -1.44,-1.6 -2.12,-3.52 -0.4,-1.16 -0.56,-2.08 -0.24,-1.08 -0.24,-2.2 0,-1.52 0.28,-2.8 0.36,-1.6 0.8,-2.76 1.04,-2.64 2.28,-4 3.32,-3.44 7.92,-3.44 1.04,0 2.16,0.2 1,0.16 2.08,0.6 2.08,0.8 3.76,2.24 1.64,1.48 2.68,3.48 0.96,1.96 0.96,4.12 0,1.44 -0.28,2.6 -0.32,1.36 -0.96,2.48 -0.76,1.28 -1.6,2 -1,0.76 -2.24,0.96 -0.8,-0.12 -1.08,-0.52 -0.28,-0.44 -0.48,-1.2 l 0.36,-1.96 2.36,-9.28 h -2.8 l -0.48,1.56 q -0.52,-1.32 -1.24,-1.72 -0.76,-0.4 -1.8,-0.4 -1.2,0 -2.16,0.4 -0.92,0.4 -1.92,1.24 -1.76,1.64 -2.72,3.84 -0.6,1.36 -0.84,2.4 -0.28,0.96 -0.28,2.2 0,1.6 0.68,2.76 0.68,1.2 1.36,1.64 0.48,0.28 1.72,0.44 2.56,0 5,-2.88 0.24,1.32 1.32,2.12 1,0.76 2.36,0.76 l 0.68,-0.08 0.64,-0.04 q 1.92,-0.4 3.36,-1.96 1.4,-1.52 2.12,-3.64 0.72,-2.12 0.72,-4.04 0,-2.6 -1.08,-4.8 -1.12,-2.2 -2.96,-3.8 -1.8,-1.56 -4.28,-2.48 -2.4,-0.88 -4.96,-0.88 -2.36,0 -4.52,0.64 -2.28,0.68 -4.12,1.92 -1.96,1.32 -3.04,2.68 z m 13.52,3.44 q 1.64,0 1.64,2.6 0,1.92 -0.68,4.04 -0.56,1.76 -1.64,3.12 -1.12,1.44 -2.4,1.44 l -0.48,-0.08 q -1.88,-0.44 -1.88,-3.44 0,-0.92 0.16,-1.6 0.12,-0.52 0.36,-1.4 0.8,-1.88 2.16,-3.24 0.68,-0.68 1.4,-1.08 0.68,-0.36 1.36,-0.36 z"
           inkscape:connector-curvature="0" />
        <path
           id="path3486"
           style="font-style:normal;font-variant:normal;font-weight:bold;font-stretch:normal;font-size:40px;font-family:Cardiff;-inkscape-font-specification:'Cardiff Bold';fill:#ffffff"
           d="m 400.18898,558.61534 q -1.28,0 -2.2,0.92 -0.92,0.92 -0.92,2.2 0,1.28 0.92,2.2 0.92,0.92 2.2,0.92 1.28,0 2.2,-0.92 0.92,-0.92 0.92,-2.2 0,-0.92 -0.4,-1.56 -0.48,-0.76 -1.16,-1.12 -0.8,-0.44 -1.56,-0.44 z m -4.84,10.12 q 1.12,0.2 1.6,0.56 0.48,0.4 0.48,1.48 v 11.96 q 0,1.24 -0.4,1.76 -0.4,0.52 -1.68,0.84 v 0.92 h 9.6 v -0.92 q -1,-0.12 -1.44,-0.68 -0.44,-0.56 -0.44,-1.68 v -15.16 h -7.72 z"
           inkscape:connector-curvature="0" />
        <path
           id="path3488"
           style="font-style:normal;font-variant:normal;font-weight:bold;font-stretch:normal;font-size:40px;font-family:Cardiff;-inkscape-font-specification:'Cardiff Bold';fill:#ffffff"
           d="m 411.28273,558.61534 q -1.28,0 -2.2,0.92 -0.92,0.92 -0.92,2.2 0,1.28 0.92,2.2 0.92,0.92 2.2,0.92 1.28,0 2.2,-0.92 0.92,-0.92 0.92,-2.2 0,-0.92 -0.4,-1.56 -0.48,-0.76 -1.16,-1.12 -0.8,-0.44 -1.56,-0.44 z m -4.84,10.12 q 1.12,0.2 1.6,0.56 0.48,0.4 0.48,1.48 v 11.96 q 0,1.24 -0.4,1.76 -0.4,0.52 -1.68,0.84 v 0.92 h 9.6 v -0.92 q -1,-0.12 -1.44,-0.68 -0.44,-0.56 -0.44,-1.68 v -15.16 h -7.72 z"
           inkscape:connector-curvature="0" />
        <path
           id="path3490"
           style="font-style:normal;font-variant:normal;font-weight:bold;font-stretch:normal;font-size:40px;font-family:Cardiff;-inkscape-font-specification:'Cardiff Bold';fill:#ffffff"
           d="m 419.77648,582.49534 q 0,1.88 1.16,3.04 1.16,1.2 3.4,1.2 1.64,0 3.12,-0.96 1.44,-0.92 2.72,-3.52 l -1,-0.44 q -1.08,2.08 -2.2,2.08 -0.76,0 -1.2,-0.44 -0.44,-0.44 -0.44,-1.72 v -12.2 h 3.76 v -1.72 h -3.76 v -6.8 h -1 q -0.08,0.12 -0.44,0.64 -0.36,0.52 -0.44,0.64 -0.28,0.4 -1,1.28 -0.32,0.4 -0.52,0.64 -0.48,0.6 -0.52,0.64 -0.2,0.24 -1.12,1.16 -0.6,0.64 -1.2,1.24 -0.48,0.48 -1.4,1.28 v 1 h 2.08 z"
           inkscape:connector-curvature="0" />
        <path
           id="path3492"
           style="font-style:normal;font-variant:normal;font-weight:bold;font-stretch:normal;font-size:40px;font-family:Cardiff;-inkscape-font-specification:'Cardiff Bold';fill:#ffffff"
           d="m 441.65773,574.77534 h -9.68 v 4.64 h 9.68 z"
           inkscape:connector-curvature="0" />
        <path
           id="path3494"
           style="font-style:normal;font-variant:normal;font-weight:bold;font-stretch:normal;font-size:40px;font-family:Cardiff;-inkscape-font-specification:'Cardiff Bold';fill:#ffffff"
           d="m 457.53898,568.17534 q -2.04,-0.84 -4.4,-0.84 -2.12,0 -3.88,0.76 -0.92,0.4 -1.72,0.96 -0.72,0.56 -1.32,1.28 -1.2,1.56 -1.36,3.48 0,4.2 4.92,6.12 -1.84,0.52 -3.24,1.68 -1.36,1.12 -1.36,2.44 0,1.48 0.56,2.28 0.6,0.84 2.48,1.48 -0.72,0 -1.4,0.24 -0.8,0.36 -1.2,0.68 -1.08,0.92 -1.08,1.96 0.52,3.76 7.68,3.76 5.4,0 7.96,-1.48 2.56,-1.44 2.56,-4.52 0,-1.92 -0.96,-2.96 -0.96,-1.08 -2.4,-1.48 -1.48,-0.4 -3.64,-0.4 l -3.52,-0.08 q -1.48,0 -2.08,-0.36 -0.6,-0.32 -0.6,-1 0.68,-2.04 2.28,-2.04 l 1.8,-0.04 1.84,-0.08 1.28,-0.24 q 0.84,-0.16 1.64,-0.72 0.12,-0.08 0.52,-0.32 0.04,-0.04 0.28,-0.2 1,-0.92 1.48,-2.04 0.44,-1.12 0.44,-2.28 0,-1.28 -0.4,-2.24 -0.44,-1.04 -1.16,-1.64 h 3.2 v -2.16 z m -6.44,1.4 q 0.64,-0.96 2.04,-1 2.6,0 2.6,5.12 0,1.16 -0.12,2.2 -0.2,1.12 -0.36,1.72 -0.36,1.36 -2.2,1.36 -1.68,0 -2.16,-1.36 -0.48,-1.32 -0.48,-4 0,-2.92 0.68,-4.04 z m -1.64,18.8 h 7.76 q 1.32,0 1.84,0.52 0.56,0.56 0.56,1.36 l -0.04,0.4 -0.04,0.28 q -0.8,2.24 -5.92,2.24 -2.2,0 -3.76,-0.48 -1.6,-0.52 -1.8,-2.16 0.2,-1.36 1.4,-2.16 z"
           inkscape:connector-curvature="0" />
      </g>
      <g
         transform="matrix(4.1568835,0,0,3.9673162,-162.55111,154.18939)"
         id="g4455">
        <circle
           style="fill:#ffffff;fill-opacity:1;stroke-width:5.80000019;stroke-miterlimit:4;stroke-dasharray:none"
           id="path3360"
           cx="111.98399"
           cy="75.526581"
           r="20.554741" />
        <path
           inkscape:connector-curvature="0"
           id="circle16"
           d="M 116,75 A 3.5,3.5 0 0 1 112.5,78.5 3.5,3.5 0 0 1 109,75 3.5,3.5 0 0 1 112.5,71.5 3.5,3.5 0 0 1 116,75 Z"
           style="fill:#000088" />
        <path
           d="M 112.5,57.5 111.9,68 c 0,0 0.6,5 0.6,5 0,0 0.6,-5 0.6,-5 z"
           id="path7430"
           inkscape:connector-curvature="0"
           style="fill:#000088" />
        <path
           d="m 117.11243,57.900121 -3.29716,9.98693 c 0,0 -0.71454,4.98492 -0.71454,4.98492 0,0 1.87365,-4.674338 1.87365,-4.674338 z"
           id="path7430-6"
           inkscape:connector-curvature="0"
           style="fill:#000088" />
        <path
           d="m 121.34236,59.827941 -5.76962,8.793266 c 0,0 -1.98038,4.630126 -1.98038,4.630126 0,0 3.01961,-4.030127 3.01961,-4.030127 z"
           id="path7430-6-1"
           inkscape:connector-curvature="0"
           style="fill:#000088" />
        <path
           d="m 125.0997,62.451201 -7.84889,7.000355 c 0,0 -3.11127,3.959799 -3.11127,3.959799 0,0 3.9598,-3.111271 3.9598,-3.111271 z"
           id="path7430-6-1-8"
           inkscape:connector-curvature="0"
           style="fill:#000088" />
        <path
           d="m 127.61745,66.28922 -9.39327,4.730382 c 0,0 -4.03013,3.019616 -4.03013,3.019616 0,0 4.63013,-1.980386 4.63013,-1.980386 z"
           id="path7430-6-1-8-7"
           inkscape:connector-curvature="0"
           style="fill:#000088" />
        <path
           d="m 129.47919,70.4364 -10.29752,2.138041 c 0,0 -4.67434,1.873651 -4.67434,1.873651 0,0 4.98493,-0.71454 4.98493,-0.71454 z"
           id="path7430-6-1-8-9"
           inkscape:connector-curvature="0"
           style="fill:#000088" />
        <path
           d="m 129.88398,74.925263 -10.5,-0.600005 c 0,0 -5,0.599999 -5,0.599999 0,0 5,0.600002 5,0.600002 z"
           id="path7430-6-1-8-9-2"
           inkscape:connector-curvature="0"
           style="fill:#000088" />
        <path
           d="m 129.47703,79.319746 -9.98692,-3.29716 c 0,0 -4.98492,-0.714541 -4.98492,-0.714541 0,0 4.67433,1.873653 4.67433,1.873653 z"
           id="path7430-6-1-8-9-2-0"
           inkscape:connector-curvature="0"
           style="fill:#000088" />
        <path
           d="m 127.91259,83.642755 -8.79325,-5.769617 c 0,0 -4.63013,-1.980386 -4.63013,-1.980386 0,0 4.03012,3.019615 4.03012,3.019615 z"
           id="path7430-6-1-8-9-2-0-2"
           inkscape:connector-curvature="0"
           style="fill:#000088" />
        <path
           d="m 125.1619,87.324173 -7.00034,-7.848883 c 0,0 -3.9598,-3.111272 -3.9598,-3.111272 0,0 3.11126,3.959796 3.11126,3.959796 z"
           id="path7430-6-1-8-9-2-0-2-3"
           inkscape:connector-curvature="0"
           style="fill:#000088" />
        <path
           d="m 121.46246,90.050828 -4.73037,-9.39326 c 0,0 -3.01961,-4.030129 -3.01961,-4.030129 0,0 1.98037,4.630122 1.98037,4.630122 z"
           id="path7430-6-1-8-9-2-0-2-3-7"
           inkscape:connector-curvature="0"
           style="fill:#000088" />
        <path
           d="M 117.12143,91.922438 114.9834,81.624935 c 0,0 -1.87365,-4.674338 -1.87365,-4.674338 0,0 0.71453,4.984912 0.71453,4.984912 z"
           id="path7430-6-1-8-9-2-0-2-3-7-5"
           inkscape:connector-curvature="0"
           style="fill:#000088" />
        <path
           d="m 112.44894,92.519844 0.60002,-10.499987 c 0,0 -0.6,-5 -0.6,-5 0,0 -0.60001,4.999989 -0.60001,4.999989 z"
           id="path7430-6-1-8-9-2-0-2-3-7-5-9"
           inkscape:connector-curvature="0"
           style="fill:#000088" />
        <path
           d="m 107.73312,91.957599 3.29718,-9.986912 c 0,0 0.71454,-4.98492 0.71454,-4.98492 0,0 -1.87366,4.674324 -1.87366,4.674324 z"
           id="path7430-6-1-8-9-2-0-2-3-7-5-9-2"
           inkscape:connector-curvature="0"
           style="fill:#000088" />
        <path
           d="m 103.53066,90.18337 5.76963,-8.793243 c 0,0 1.98039,-4.630127 1.98039,-4.630127 0,0 -3.01962,4.030112 -3.01962,4.030112 z"
           id="path7430-6-1-8-9-2-0-2-3-7-5-9-2-2"
           inkscape:connector-curvature="0"
           style="fill:#000088" />
        <path
           d="m 99.925607,87.285083 7.848893,-7.00033 c 0,0 3.11127,-3.959796 3.11127,-3.959796 0,0 -3.95979,3.111254 -3.95979,3.111254 z"
           id="path7430-6-1-8-9-2-0-2-3-7-5-9-2-2-8"
           inkscape:connector-curvature="0"
           style="fill:#000088" />
        <path
           d="m 97.36066,83.680007 9.39328,-4.730356 c 0,0 4.03013,-3.019614 4.03013,-3.019614 0,0 -4.63012,1.980372 -4.63012,1.980372 z"
           id="path7430-6-1-8-9-2-0-2-3-7-5-9-2-2-8-9"
           inkscape:connector-curvature="0"
           style="fill:#000088" />
        <path
           d="m 95.586418,79.477522 10.297552,-2.138013 c 0,0 4.67434,-1.873649 4.67434,-1.873649 0,0 -4.98491,0.714529 -4.98491,0.714529 z"
           id="path7430-6-1-8-9-2-0-2-3-7-5-9-2-2-8-9-7"
           inkscape:connector-curvature="0"
           style="fill:#000088" />
        <path
           d="m 94.988992,74.805006 10.500078,0.60004 c 0,0 5,-0.599998 5,-0.599998 0,0 -4.99999,-0.600007 -4.99999,-0.600007 z"
           id="path7430-6-1-8-9-2-0-2-3-7-5-9-2-2-8-9-7-3"
           inkscape:connector-curvature="0"
           style="fill:#000088" />
        <path
           d="m 95.69365,70.376235 9.98702,3.297215 c 0,0 4.98492,0.714542 4.98492,0.714542 0,0 -4.67432,-1.873655 -4.67432,-1.873655 z"
           id="path7430-6-1-8-9-2-0-2-3-7-5-9-2-2-8-9-7-3-6"
           inkscape:connector-curvature="0"
           style="fill:#000088" />
        <path
           d="m 97.134537,66.173757 8.793363,5.769697 c 0,0 4.63012,1.980386 4.63012,1.980386 0,0 -4.03011,-3.019614 -4.03011,-3.019614 z"
           id="path7430-6-1-8-9-2-0-2-3-7-5-9-2-2-8-9-7-3-6-1"
           inkscape:connector-curvature="0"
           style="fill:#000088" />
        <path
           d="m 100.03283,62.568671 7.00043,7.848989 c 0,0 3.95979,3.11127 3.95979,3.11127 0,0 -3.11126,-3.959793 -3.11126,-3.959793 z"
           id="path7430-6-1-8-9-2-0-2-3-7-5-9-2-2-8-9-7-3-6-1-2"
           inkscape:connector-curvature="0"
           style="fill:#000088" />
        <path
           d="m 103.86913,59.723581 4.73043,9.393386 c 0,0 3.01961,4.030125 3.01961,4.030125 0,0 -1.98038,-4.63012 -1.98038,-4.63012 z"
           id="path7430-6-1-8-9-2-0-2-3-7-5-9-2-2-8-9-7-3-6-1-2-9"
           inkscape:connector-curvature="0"
           style="fill:#000088" />
        <path
           d="m 108.07161,57.949351 2.13806,10.297639 c 0,0 1.87364,4.674334 1.87364,4.674334 0,0 -0.71454,-4.984912 -0.71454,-4.984912 z"
           id="path7430-6-1-8-9-2-0-2-3-7-5-9-2-2-8-9-7-3-6-1-2-9-3"
           inkscape:connector-curvature="0"
           style="fill:#000088" />
        <path
           inkscape:connector-curvature="0"
           id="circle16-2"
           d="m 115.02882,75.057777 a 2.5129003,2.4918432 0 0 1 -2.5129,2.491843 2.5129003,2.4918432 0 0 1 -2.5129,-2.491843 2.5129003,2.4918432 0 0 1 2.5129,-2.491843 2.5129003,2.4918432 0 0 1 2.5129,2.491843 z"
           style="fill:#ffffff;fill-opacity:1" />
      </g>
      <g
         transform="matrix(1.3374509,0,0,1.3374509,-136.30378,-107.24021)"
         id="text3565"
         style="font-style:normal;font-weight:normal;font-size:40px;line-height:125%;font-family:sans-serif;letter-spacing:0px;word-spacing:0px;fill:#ffffff;fill-opacity:1;stroke:none;stroke-width:1px;stroke-linecap:butt;stroke-linejoin:miter;stroke-opacity:1">
        <path
           inkscape:connector-curvature="0"
           id="path3570"
           style="font-style:normal;font-variant:normal;font-weight:bold;font-stretch:normal;font-family:Arial;-inkscape-font-specification:'Arial Bold';fill:#ffffff"
           d="m 154.5706,683.23071 5.60547,1.77735 q -1.28906,4.6875 -4.29687,6.97265 -2.98829,2.26563 -7.59766,2.26563 -5.70313,0 -9.375,-3.88672 -3.67188,-3.90625 -3.67188,-10.66406 0,-7.14844 3.69141,-11.09375 3.69141,-3.96485 9.70703,-3.96485 5.25391,0 8.53516,3.10547 1.95312,1.83594 2.92969,5.27344 l -5.72266,1.36719 q -0.50781,-2.22657 -2.12891,-3.51563 -1.60156,-1.28906 -3.90625,-1.28906 -3.18359,0 -5.17578,2.28516 -1.97265,2.28515 -1.97265,7.40234 0,5.42969 1.95312,7.73437 1.95313,2.30469 5.07813,2.30469 2.30468,0 3.96484,-1.46484 1.66016,-1.46485 2.38281,-4.60938 z" />
        <path
           inkscape:connector-curvature="0"
           id="path3572"
           style="font-style:normal;font-variant:normal;font-weight:bold;font-stretch:normal;font-family:Arial;-inkscape-font-specification:'Arial Bold';fill:#ffffff"
           d="m 177.1292,687.15649 5.46875,0.91797 q -1.05469,3.00782 -3.33985,4.58985 -2.26562,1.5625 -5.68359,1.5625 -5.41016,0 -8.00781,-3.53516 -2.05079,-2.83203 -2.05079,-7.14844 0,-5.15625 2.69532,-8.0664 2.69531,-2.92969 6.8164,-2.92969 4.62891,0 7.30469,3.06641 2.67578,3.04687 2.55859,9.35546 h -13.75 q 0.0586,2.44141 1.32813,3.8086 1.26953,1.34765 3.16406,1.34765 1.28906,0 2.16797,-0.70312 0.87891,-0.70313 1.32813,-2.26563 z m 0.3125,-5.54687 q -0.0586,-2.38281 -1.23047,-3.61328 -1.17188,-1.25 -2.85157,-1.25 -1.79687,0 -2.96875,1.30859 -1.17187,1.3086 -1.15234,3.55469 z" />
        <path
           inkscape:connector-curvature="0"
           id="path3574"
           style="font-style:normal;font-variant:normal;font-weight:bold;font-stretch:normal;font-family:Arial;-inkscape-font-specification:'Arial Bold';fill:#ffffff"
           d="m 206.25029,693.75806 h -5.48828 v -10.58594 q 0,-3.35938 -0.35156,-4.33594 -0.35157,-0.99609 -1.15235,-1.54297 -0.78125,-0.54687 -1.89453,-0.54687 -1.42578,0 -2.55859,0.78125 -1.13282,0.78125 -1.5625,2.07031 -0.41016,1.28906 -0.41016,4.76563 v 9.39453 h -5.48828 v -20.74219 h 5.09766 v 3.04687 q 2.71484,-3.51562 6.83593,-3.51562 1.81641,0 3.32032,0.66406 1.5039,0.64453 2.26562,1.66016 0.78125,1.01562 1.07422,2.30469 0.3125,1.28906 0.3125,3.6914 z" />
        <path
           inkscape:connector-curvature="0"
           id="path3576"
           style="font-style:normal;font-variant:normal;font-weight:bold;font-stretch:normal;font-family:Arial;-inkscape-font-specification:'Arial Bold';fill:#ffffff"
           d="m 221.34795,673.01587 v 4.375 h -3.75 v 8.35937 q 0,2.53907 0.0977,2.96875 0.11719,0.41016 0.48828,0.6836 0.39063,0.27344 0.9375,0.27344 0.76172,0 2.20703,-0.52735 l 0.46875,4.25781 q -1.91406,0.82032 -4.33593,0.82032 -1.48438,0 -2.67578,-0.48828 -1.19141,-0.50782 -1.75782,-1.28907 -0.54687,-0.80078 -0.76172,-2.14843 -0.17578,-0.95704 -0.17578,-3.86719 v -9.04297 h -2.51953 v -4.375 h 2.51953 v -4.12109 l 5.50782,-3.20313 v 7.32422 h 3.75 z" />
        <path
           inkscape:connector-curvature="0"
           id="path3578"
           style="font-style:normal;font-variant:normal;font-weight:bold;font-stretch:normal;font-family:Arial;-inkscape-font-specification:'Arial Bold';fill:#ffffff"
           d="m 230.44951,693.75806 h -5.48828 v -20.74219 h 5.09765 v 2.94922 q 1.3086,-2.08985 2.34375,-2.75391 1.05469,-0.66406 2.38282,-0.66406 1.875,0 3.61328,1.03516 l -1.69922,4.78515 q -1.38672,-0.89844 -2.57813,-0.89844 -1.15234,0 -1.95312,0.64454 -0.80078,0.625 -1.26953,2.28515 -0.44922,1.66016 -0.44922,6.95313 z" />
        <path
           inkscape:connector-curvature="0"
           id="path3580"
           style="font-style:normal;font-variant:normal;font-weight:bold;font-stretch:normal;font-family:Arial;-inkscape-font-specification:'Arial Bold';fill:#ffffff"
           d="m 252.7542,687.15649 5.46875,0.91797 q -1.05469,3.00782 -3.33985,4.58985 -2.26562,1.5625 -5.68359,1.5625 -5.41016,0 -8.00781,-3.53516 -2.05079,-2.83203 -2.05079,-7.14844 0,-5.15625 2.69532,-8.0664 2.69531,-2.92969 6.8164,-2.92969 4.62891,0 7.30469,3.06641 2.67578,3.04687 2.55859,9.35546 h -13.75 q 0.0586,2.44141 1.32813,3.8086 1.26953,1.34765 3.16406,1.34765 1.28906,0 2.16797,-0.70312 0.87891,-0.70313 1.32813,-2.26563 z m 0.3125,-5.54687 q -0.0586,-2.38281 -1.23047,-3.61328 -1.17188,-1.25 -2.85157,-1.25 -1.79687,0 -2.96875,1.30859 -1.17187,1.3086 -1.15234,3.55469 z" />
        <path
           inkscape:connector-curvature="0"
           id="path3582"
           style="font-style:normal;font-variant:normal;font-weight:bold;font-stretch:normal;font-family:Arial;-inkscape-font-specification:'Arial Bold';fill:#ffffff"
           d="m 271.69951,673.01587 h 3.04687 v -1.5625 q 0,-2.61719 0.54688,-3.90625 0.5664,-1.28906 2.05078,-2.08984 1.50391,-0.82032 3.78906,-0.82032 2.34375,0 4.58985,0.70313 l -0.74219,3.82812 q -1.3086,-0.3125 -2.51953,-0.3125 -1.19141,0 -1.71875,0.56641 -0.50782,0.54687 -0.50782,2.12891 v 1.46484 h 4.10157 v 4.31641 h -4.10157 v 16.42578 h -5.48828 v -16.42578 h -3.04687 z" />
        <path
           inkscape:connector-curvature="0"
           id="path3584"
           style="font-style:normal;font-variant:normal;font-weight:bold;font-stretch:normal;font-family:Arial;-inkscape-font-specification:'Arial Bold';fill:#ffffff"
           d="m 286.1917,683.09399 q 0,-2.73437 1.34765,-5.29296 1.34766,-2.5586 3.8086,-3.90625 2.48046,-1.34766 5.52734,-1.34766 4.70703,0 7.71484,3.06641 3.00782,3.04687 3.00782,7.71484 0,4.70703 -3.04688,7.8125 -3.02734,3.08594 -7.63672,3.08594 -2.85156,0 -5.44922,-1.28907 -2.57812,-1.28906 -3.92578,-3.76953 -1.34765,-2.5 -1.34765,-6.07422 z m 5.625,0.29297 q 0,3.08594 1.46484,4.72657 1.46484,1.64062 3.61328,1.64062 2.14844,0 3.59375,-1.64062 1.46484,-1.64063 1.46484,-4.76563 0,-3.04687 -1.46484,-4.6875 -1.44531,-1.64062 -3.59375,-1.64062 -2.14844,0 -3.61328,1.64062 -1.46484,1.64063 -1.46484,4.72656 z" />
        <path
           inkscape:connector-curvature="0"
           id="path3586"
           style="font-style:normal;font-variant:normal;font-weight:bold;font-stretch:normal;font-family:Arial;-inkscape-font-specification:'Arial Bold';fill:#ffffff"
           d="m 317.16826,693.75806 h -5.48828 v -20.74219 h 5.09765 v 2.94922 q 1.3086,-2.08985 2.34375,-2.75391 1.05469,-0.66406 2.38282,-0.66406 1.875,0 3.61328,1.03516 l -1.69922,4.78515 q -1.38672,-0.89844 -2.57813,-0.89844 -1.15234,0 -1.95312,0.64454 -0.80078,0.625 -1.26953,2.28515 -0.44922,1.66016 -0.44922,6.95313 z" />
        <path
           inkscape:connector-curvature="0"
           id="path3588"
           style="font-style:normal;font-variant:normal;font-weight:bold;font-stretch:normal;font-family:Arial;-inkscape-font-specification:'Arial Bold';fill:#ffffff"
           d="m 338.65263,693.75806 v -28.63282 h 5.625 l 11.71875,19.1211 v -19.1211 h 5.3711 v 28.63282 h -5.80078 l -11.54297,-18.67188 v 18.67188 z" />
        <path
           inkscape:connector-curvature="0"
           id="path3590"
           style="font-style:normal;font-variant:normal;font-weight:bold;font-stretch:normal;font-family:Arial;-inkscape-font-specification:'Arial Bold';fill:#ffffff"
           d="m 371.56279,679.34399 -4.98047,-0.89843 q 0.83984,-3.00782 2.89063,-4.45313 2.05078,-1.44531 6.09375,-1.44531 3.67187,0 5.46875,0.87891 1.79687,0.85937 2.51953,2.20703 0.74218,1.32812 0.74218,4.90234 l -0.0586,6.40625 q 0,2.73438 0.25391,4.04297 0.27343,1.28906 0.99609,2.77344 h -5.42969 q -0.21484,-0.54688 -0.52734,-1.6211 -0.13672,-0.48828 -0.19531,-0.64453 -1.40625,1.36719 -3.00782,2.05078 -1.60156,0.6836 -3.41796,0.6836 -3.20313,0 -5.0586,-1.73828 -1.83594,-1.73829 -1.83594,-4.39454 0,-1.75781 0.83985,-3.125 0.83984,-1.38671 2.34375,-2.10937 1.52344,-0.74219 4.375,-1.28906 3.84765,-0.72266 5.33203,-1.34766 v -0.54687 q 0,-1.58204 -0.78125,-2.2461 -0.78125,-0.68359 -2.94922,-0.68359 -1.46484,0 -2.28516,0.58594 -0.82031,0.5664 -1.32812,2.01171 z m 7.34375,4.45313 q -1.05469,0.35156 -3.33984,0.83984 -2.28516,0.48828 -2.98829,0.95703 -1.07421,0.76172 -1.07421,1.9336 0,1.15234 0.85937,1.99219 0.85938,0.83984 2.1875,0.83984 1.48438,0 2.83203,-0.97656 0.9961,-0.74219 1.3086,-1.81641 0.21484,-0.70312 0.21484,-2.67578 z" />
        <path
           inkscape:connector-curvature="0"
           id="path3592"
           style="font-style:normal;font-variant:normal;font-weight:bold;font-stretch:normal;font-family:Arial;-inkscape-font-specification:'Arial Bold';fill:#ffffff"
           d="m 408.59404,693.75806 h -5.48828 v -10.58594 q 0,-3.35938 -0.35156,-4.33594 -0.35157,-0.99609 -1.15235,-1.54297 -0.78125,-0.54687 -1.89453,-0.54687 -1.42578,0 -2.55859,0.78125 -1.13282,0.78125 -1.5625,2.07031 -0.41016,1.28906 -0.41016,4.76563 v 9.39453 h -5.48828 v -20.74219 h 5.09766 v 3.04687 q 2.71484,-3.51562 6.83593,-3.51562 1.81641,0 3.32032,0.66406 1.5039,0.64453 2.26562,1.66016 0.78125,1.01562 1.07422,2.30469 0.3125,1.28906 0.3125,3.6914 z" />
        <path
           inkscape:connector-curvature="0"
           id="path3594"
           style="font-style:normal;font-variant:normal;font-weight:bold;font-stretch:normal;font-family:Arial;-inkscape-font-specification:'Arial Bold';fill:#ffffff"
           d="m 412.91045,683.09399 q 0,-2.73437 1.34765,-5.29296 1.34766,-2.5586 3.8086,-3.90625 2.48046,-1.34766 5.52734,-1.34766 4.70703,0 7.71484,3.06641 3.00782,3.04687 3.00782,7.71484 0,4.70703 -3.04688,7.8125 -3.02734,3.08594 -7.63672,3.08594 -2.85156,0 -5.44922,-1.28907 -2.57812,-1.28906 -3.92578,-3.76953 -1.34765,-2.5 -1.34765,-6.07422 z m 5.625,0.29297 q 0,3.08594 1.46484,4.72657 1.46484,1.64062 3.61328,1.64062 2.14844,0 3.59375,-1.64062 1.46484,-1.64063 1.46484,-4.76563 0,-3.04687 -1.46484,-4.6875 -1.44531,-1.64062 -3.59375,-1.64062 -2.14844,0 -3.61328,1.64062 -1.46484,1.64063 -1.46484,4.72656 z" />
        <path
           inkscape:connector-curvature="0"
           id="path3596"
           style="font-style:normal;font-variant:normal;font-weight:bold;font-stretch:normal;font-family:Arial;-inkscape-font-specification:'Arial Bold';fill:#ffffff"
           d="m 448.14482,673.01587 v 4.375 h -3.75 v 8.35937 q 0,2.53907 0.0977,2.96875 0.11718,0.41016 0.48828,0.6836 0.39062,0.27344 0.9375,0.27344 0.76172,0 2.20703,-0.52735 l 0.46875,4.25781 q -1.91406,0.82032 -4.33594,0.82032 -1.48437,0 -2.67578,-0.48828 -1.19141,-0.50782 -1.75781,-1.28907 -0.54688,-0.80078 -0.76172,-2.14843 -0.17578,-0.95704 -0.17578,-3.86719 v -9.04297 h -2.51953 v -4.375 h 2.51953 v -4.12109 l 5.50781,-3.20313 v 7.32422 h 3.75 z" />
        <path
           inkscape:connector-curvature="0"
           id="path3598"
           style="font-style:normal;font-variant:normal;font-weight:bold;font-stretch:normal;font-family:Arial;-inkscape-font-specification:'Arial Bold';fill:#ffffff"
           d="m 464.0042,687.15649 5.46875,0.91797 q -1.05469,3.00782 -3.33985,4.58985 -2.26562,1.5625 -5.68359,1.5625 -5.41016,0 -8.00781,-3.53516 -2.05079,-2.83203 -2.05079,-7.14844 0,-5.15625 2.69532,-8.0664 2.69531,-2.92969 6.8164,-2.92969 4.62891,0 7.30469,3.06641 2.67578,3.04687 2.55859,9.35546 h -13.75 q 0.0586,2.44141 1.32813,3.8086 1.26953,1.34765 3.16406,1.34765 1.28906,0 2.16797,-0.70312 0.87891,-0.70313 1.32813,-2.26563 z m 0.3125,-5.54687 q -0.0586,-2.38281 -1.23047,-3.61328 -1.17188,-1.25 -2.85157,-1.25 -1.79687,0 -2.96875,1.30859 -1.17187,1.3086 -1.15234,3.55469 z" />
        <path
           inkscape:connector-curvature="0"
           id="path3600"
           style="font-style:normal;font-variant:normal;font-weight:bold;font-stretch:normal;font-family:Arial;-inkscape-font-specification:'Arial Bold';fill:#ffffff"
           d="m 492.34404,679.14868 -5.41016,0.97656 q -0.27343,-1.62109 -1.25,-2.4414 -0.95703,-0.82031 -2.5,-0.82031 -2.05078,0 -3.28125,1.42578 -1.21093,1.40625 -1.21093,4.72656 0,3.69141 1.23046,5.21484 1.25,1.52344 3.33985,1.52344 1.5625,0 2.55859,-0.87891 0.9961,-0.89843 1.40625,-3.0664 l 5.39063,0.91797 q -0.83985,3.71093 -3.22266,5.60547 -2.38281,1.89453 -6.38672,1.89453 -4.55078,0 -7.26562,-2.8711 -2.69532,-2.87109 -2.69532,-7.94922 0,-5.13671 2.71485,-7.98828 2.71484,-2.87109 7.34375,-2.87109 3.78906,0 6.01562,1.64062 2.2461,1.6211 3.22266,4.96094 z" />
        <path
           inkscape:connector-curvature="0"
           id="path3602"
           style="font-style:normal;font-variant:normal;font-weight:bold;font-stretch:normal;font-family:Arial;-inkscape-font-specification:'Arial Bold';fill:#ffffff"
           d="m 501.99248,665.12524 v 10.52735 q 2.65625,-3.10547 6.34765,-3.10547 1.89453,0 3.41797,0.70312 1.52344,0.70313 2.28516,1.79688 0.78125,1.09375 1.05469,2.42187 0.29296,1.32813 0.29296,4.1211 v 12.16797 h -5.48828 v -10.95703 q 0,-3.26172 -0.3125,-4.14063 -0.3125,-0.87891 -1.11328,-1.38672 -0.78125,-0.52734 -1.97265,-0.52734 -1.36719,0 -2.44141,0.66406 -1.07422,0.66406 -1.58203,2.01172 -0.48828,1.32812 -0.48828,3.94531 v 10.39063 h -5.48828 v -28.63282 z" />
        <path
           inkscape:connector-curvature="0"
           id="path3604"
           style="font-style:normal;font-variant:normal;font-weight:bold;font-stretch:normal;font-family:Arial;-inkscape-font-specification:'Arial Bold';fill:#ffffff"
           d="m 539.84404,693.75806 h -5.48828 v -10.58594 q 0,-3.35938 -0.35156,-4.33594 -0.35157,-0.99609 -1.15235,-1.54297 -0.78125,-0.54687 -1.89453,-0.54687 -1.42578,0 -2.55859,0.78125 -1.13282,0.78125 -1.5625,2.07031 -0.41016,1.28906 -0.41016,4.76563 v 9.39453 h -5.48828 v -20.74219 h 5.09766 v 3.04687 q 2.71484,-3.51562 6.83593,-3.51562 1.81641,0 3.32032,0.66406 1.5039,0.64453 2.26562,1.66016 0.78125,1.01562 1.07422,2.30469 0.3125,1.28906 0.3125,3.6914 z" />
        <path
           inkscape:connector-curvature="0"
           id="path3606"
           style="font-style:normal;font-variant:normal;font-weight:bold;font-stretch:normal;font-family:Arial;-inkscape-font-specification:'Arial Bold';fill:#ffffff"
           d="m 544.16045,683.09399 q 0,-2.73437 1.34765,-5.29296 1.34766,-2.5586 3.8086,-3.90625 2.48046,-1.34766 5.52734,-1.34766 4.70703,0 7.71484,3.06641 3.00782,3.04687 3.00782,7.71484 0,4.70703 -3.04688,7.8125 -3.02734,3.08594 -7.63672,3.08594 -2.85156,0 -5.44922,-1.28907 -2.57812,-1.28906 -3.92578,-3.76953 -1.34765,-2.5 -1.34765,-6.07422 z m 5.625,0.29297 q 0,3.08594 1.46484,4.72657 1.46484,1.64062 3.61328,1.64062 2.14844,0 3.59375,-1.64062 1.46484,-1.64063 1.46484,-4.76563 0,-3.04687 -1.46484,-4.6875 -1.44531,-1.64062 -3.59375,-1.64062 -2.14844,0 -3.61328,1.64062 -1.46484,1.64063 -1.46484,4.72656 z" />
        <path
           inkscape:connector-curvature="0"
           id="path3608"
           style="font-style:normal;font-variant:normal;font-weight:bold;font-stretch:normal;font-family:Arial;-inkscape-font-specification:'Arial Bold';fill:#ffffff"
           d="m 569.8831,693.75806 v -28.63282 h 5.48828 v 28.63282 z" />
        <path
           inkscape:connector-curvature="0"
           id="path3610"
           style="font-style:normal;font-variant:normal;font-weight:bold;font-stretch:normal;font-family:Arial;-inkscape-font-specification:'Arial Bold';fill:#ffffff"
           d="m 579.70732,683.09399 q 0,-2.73437 1.34766,-5.29296 1.34765,-2.5586 3.80859,-3.90625 2.48047,-1.34766 5.52734,-1.34766 4.70704,0 7.71485,3.06641 3.00781,3.04687 3.00781,7.71484 0,4.70703 -3.04687,7.8125 -3.02735,3.08594 -7.63672,3.08594 -2.85157,0 -5.44922,-1.28907 -2.57813,-1.28906 -3.92578,-3.76953 -1.34766,-2.5 -1.34766,-6.07422 z m 5.625,0.29297 q 0,3.08594 1.46484,4.72657 1.46485,1.64062 3.61329,1.64062 2.14843,0 3.59375,-1.64062 1.46484,-1.64063 1.46484,-4.76563 0,-3.04687 -1.46484,-4.6875 -1.44532,-1.64062 -3.59375,-1.64062 -2.14844,0 -3.61329,1.64062 -1.46484,1.64063 -1.46484,4.72656 z" />
        <path
           inkscape:connector-curvature="0"
           id="path3612"
           style="font-style:normal;font-variant:normal;font-weight:bold;font-stretch:normal;font-family:Arial;-inkscape-font-specification:'Arial Bold';fill:#ffffff"
           d="m 604.92216,695.12524 6.26954,0.76172 q 0.15625,1.09375 0.72265,1.50391 0.78125,0.58594 2.46094,0.58594 2.14844,0 3.22266,-0.64453 0.72265,-0.42969 1.09375,-1.38672 0.2539,-0.6836 0.2539,-2.51953 v -3.02735 q -2.46094,3.35938 -6.21094,3.35938 -4.17968,0 -6.62109,-3.53516 -1.91406,-2.79297 -1.91406,-6.95312 0,-5.21485 2.5,-7.96875 2.51953,-2.75391 6.25,-2.75391 3.84765,0 6.34765,3.37891 v -2.91016 h 5.13672 v 18.61328 q 0,3.67188 -0.60547,5.48828 -0.60546,1.81641 -1.69921,2.85156 -1.09375,1.03516 -2.92969,1.6211 -1.81641,0.58594 -4.60938,0.58594 -5.27343,0 -7.48047,-1.81641 -2.20703,-1.79688 -2.20703,-4.57031 0,-0.27344 0.0195,-0.66407 z m 4.90235,-12.16796 q 0,3.30078 1.26953,4.84375 1.28906,1.52343 3.16406,1.52343 2.01172,0 3.39844,-1.5625 1.38672,-1.58203 1.38672,-4.66797 0,-3.22265 -1.32813,-4.78515 -1.32812,-1.5625 -3.35937,-1.5625 -1.97266,0 -3.26172,1.54297 -1.26953,1.52343 -1.26953,4.66797 z" />
        <path
           inkscape:connector-curvature="0"
           id="path3614"
           style="font-style:normal;font-variant:normal;font-weight:bold;font-stretch:normal;font-family:Arial;-inkscape-font-specification:'Arial Bold';fill:#ffffff"
           d="m 627.28545,673.01587 h 5.83984 l 4.96094,14.72656 4.84375,-14.72656 h 5.68359 l -7.32422,19.96094 -1.30859,3.61328 q -0.72266,1.8164 -1.38672,2.77344 -0.64453,0.95703 -1.50391,1.54296 -0.83984,0.60547 -2.08984,0.9375 -1.23047,0.33204 -2.79297,0.33204 -1.58203,0 -3.10547,-0.33204 l -0.48828,-4.29687 q 1.28906,0.25391 2.32422,0.25391 1.91406,0 2.83203,-1.13282 0.91797,-1.11328 1.40625,-2.85156 z" />
      </g>
    </g>
  </g>
</svg>
